<svg width="200" height="200" viewBox="0 0 200 200" xmlns="http://www.w3.org/2000/svg">
    <defs/>
    <path fill="#000000" stroke="none" d="M 0 0 L 200 0 L 200 200 L 0 200 Z"/>
    <path fill="none" stroke="#ffffff" d="M 100 100 L 100 100"/>
    <path fill="none" stroke="#ffffff" d="M 100 100 L 100 100"/>
    <path fill="none" stroke="#ffffff" d="M 100 100 L 100 100"/>
    <path fill="none" stroke="#ffffff" d="M 100 100 L 100 100"/>
    <path fill="none" stroke="#ffffff" d="M 100 100 L 100 100"/>
    <path fill="none" stroke="#0000ff" d="M 100 100 L 101 94"/>
    <path fill="none" stroke="#0000ff" d="M 101 94 L 103 100"/>
    <path fill="none" stroke="#0000ff" d="M 103 100 L 98 97"/>
    <path fill="none" stroke="#0000ff" d="M 98 97 L 104 97"/>
    <path fill="none" stroke="#0000ff" d="M 104 97 L 99 101"/>
    <path fill="none" stroke="#0000ff" d="M 99 101 L 103 90"/>
    <path fill="none" stroke="#0000ff" d="M 103 90 L 106 102"/>
    <path fill="none" stroke="#0000ff" d="M 106 102 L 97 94"/>
    <path fill="none" stroke="#0000ff" d="M 97 94 L 109 95"/>
    <path fill="none" stroke="#0000ff" d="M 109 95 L 99 102"/>
    <path fill="none" stroke="#0000ff" d="M 99 102 L 107 86"/>
    <path fill="none" stroke="#0000ff" d="M 107 86 L 110 104"/>
    <path fill="none" stroke="#0000ff" d="M 110 104 L 97 91"/>
    <path fill="none" stroke="#0000ff" d="M 97 91 L 115 94"/>
    <path fill="none" stroke="#0000ff" d="M 115 94 L 99 102"/>
    <path fill="none" stroke="#0000ff" d="M 99 102 L 113 82"/>
    <path fill="none" stroke="#0000ff" d="M 113 82 L 113 106"/>
    <path fill="none" stroke="#0000ff" d="M 113 106 L 99 87"/>
    <path fill="none" stroke="#0000ff" d="M 99 87 L 122 94"/>
    <path fill="none" stroke="#0000ff" d="M 122 94 L 99 102"/>
    <path fill="none" stroke="#0000ff" d="M 99 102 L 119 80"/>
    <path fill="none" stroke="#0000ff" d="M 119 80 L 116 110"/>
    <path fill="none" stroke="#0000ff" d="M 116 110 L 101 84"/>
    <path fill="none" stroke="#0000ff" d="M 101 84 L 128 96"/>
    <path fill="none" stroke="#0000ff" d="M 128 96 L 99 102"/>
    <path fill="none" stroke="#0000ff" d="M 99 102 L 126 78"/>
    <path fill="none" stroke="#0000ff" d="M 126 78 L 118 113"/>
    <path fill="none" stroke="#0000ff" d="M 118 113 L 104 80"/>
    <path fill="none" stroke="#0000ff" d="M 104 80 L 135 99"/>
    <path fill="none" stroke="#0000ff" d="M 135 99 L 99 102"/>
    <path fill="none" stroke="#0000ff" d="M 99 102 L 134 79"/>
    <path fill="none" stroke="#0000ff" d="M 134 79 L 120 118"/>
    <path fill="none" stroke="#0000ff" d="M 120 118 L 108 78"/>
    <path fill="none" stroke="#0000ff" d="M 108 78 L 141 104"/>
    <path fill="none" stroke="#0000ff" d="M 141 104 L 99 103"/>
    <path fill="none" stroke="#0000ff" d="M 99 103 L 142 81"/>
    <path fill="none" stroke="#0000ff" d="M 142 81 L 120 124"/>
    <path fill="none" stroke="#0000ff" d="M 120 124 L 112 77"/>
    <path fill="none" stroke="#0000ff" d="M 112 77 L 146 111"/>
    <path fill="none" stroke="#0000ff" d="M 146 111 L 99 103"/>
    <path fill="none" stroke="#0000ff" d="M 99 103 L 150 85"/>
    <path fill="none" stroke="#0000ff" d="M 150 85 L 120 130"/>
    <path fill="none" stroke="#0000ff" d="M 120 130 L 118 76"/>
    <path fill="none" stroke="#0000ff" d="M 118 76 L 151 119"/>
    <path fill="none" stroke="#0000ff" d="M 151 119 L 99 104"/>
    <path fill="none" stroke="#0000ff" d="M 99 104 L 157 91"/>
    <path fill="none" stroke="#0000ff" d="M 157 91 L 118 136"/>
    <path fill="none" stroke="#0000ff" d="M 118 136 L 123 76"/>
    <path fill="none" stroke="#0000ff" d="M 123 76 L 154 127"/>
    <path fill="none" stroke="#0000ff" d="M 154 127 L 99 104"/>
    <path fill="none" stroke="#0000ff" d="M 99 104 L 165 97"/>
    <path fill="none" stroke="#0000ff" d="M 165 97 L 116 141"/>
    <path fill="none" stroke="#0000ff" d="M 116 141 L 130 76"/>
    <path fill="none" stroke="#0000ff" d="M 130 76 L 157 136"/>
    <path fill="none" stroke="#0000ff" d="M 157 136 L 100 103"/>
    <path fill="none" stroke="#0000ff" d="M 100 103 L 172 104"/>
    <path fill="none" stroke="#0000ff" d="M 172 104 L 113 145"/>
    <path fill="none" stroke="#0000ff" d="M 113 145 L 136 77"/>
    <path fill="none" stroke="#0000ff" d="M 136 77 L 157 146"/>
    <path fill="none" stroke="#0000ff" d="M 157 146 L 100 103"/>
    <path fill="none" stroke="#0000ff" d="M 100 103 L 177 114"/>
    <path fill="none" stroke="#0000ff" d="M 177 114 L 108 151"/>
    <path fill="none" stroke="#0000ff" d="M 108 151 L 142 81"/>
    <path fill="none" stroke="#0000ff" d="M 142 81 L 156 158"/>
    <path fill="none" stroke="#0000ff" d="M 156 158 L 100 104"/>
    <path fill="none" stroke="#0000ff" d="M 100 104 L 181 126"/>
    <path fill="none" stroke="#0000ff" d="M 181 126 L 103 156"/>
    <path fill="none" stroke="#0000ff" d="M 103 156 L 149 86"/>
    <path fill="none" stroke="#0000ff" d="M 149 86 L 153 170"/>
    <path fill="none" stroke="#0000ff" d="M 153 170 L 100 105"/>
    <path fill="none" stroke="#0000ff" d="M 100 105 L 183 139"/>
    <path fill="none" stroke="#0000ff" d="M 183 139 L 96 161"/>
    <path fill="none" stroke="#0000ff" d="M 96 161 L 154 92"/>
    <path fill="none" stroke="#0000ff" d="M 154 92 L 148 182"/>
    <path fill="none" stroke="#0000ff" d="M 148 182 L 100 106"/>
    <path fill="none" stroke="#0000ff" d="M 100 106 L 184 153"/>
    <path fill="none" stroke="#0000ff" d="M 184 153 L 89 165"/>
    <path fill="none" stroke="#0000ff" d="M 89 165 L 159 100"/>
    <path fill="none" stroke="#0000ff" d="M 159 100 L 141 194"/>
    <path fill="none" stroke="#0000ff" d="M 141 194 L 100 107"/>
    <path fill="none" stroke="#0000ff" d="M 100 107 L 183 167"/>
    <path fill="none" stroke="#0000ff" d="M 183 167 L 81 167"/>
    <path fill="none" stroke="#0000ff" d="M 81 167 L 164 107"/>
    <path fill="none" stroke="#0000ff" d="M 164 107 L 132 204"/>
    <path fill="none" stroke="#0000ff" d="M 132 204 L 100 107"/>
    <path fill="none" stroke="#0000ff" d="M 100 107 L 179 181"/>
    <path fill="none" stroke="#0000ff" d="M 179 181 L 72 168"/>
    <path fill="none" stroke="#0000ff" d="M 72 168 L 166 116"/>
    <path fill="none" stroke="#0000ff" d="M 166 116 L 120 214"/>
    <path fill="none" stroke="#0000ff" d="M 120 214 L 99 108"/>
    <path fill="none" stroke="#0000ff" d="M 99 108 L 172 195"/>
    <path fill="none" stroke="#0000ff" d="M 172 195 L 61 167"/>
    <path fill="none" stroke="#0000ff" d="M 61 167 L 167 124"/>
    <path fill="none" stroke="#0000ff" d="M 167 124 L 107 221"/>
    <path fill="none" stroke="#0000ff" d="M 107 221 L 99 107"/>
    <path fill="none" stroke="#0000ff" d="M 99 107 L 164 208"/>
    <path fill="none" stroke="#0000ff" d="M 164 208 L 52 165"/>
    <path fill="none" stroke="#0000ff" d="M 52 165 L 168 134"/>
    <path fill="none" stroke="#0000ff" d="M 168 134 L 92 227"/>
    <path fill="none" stroke="#0000ff" d="M 92 227 L 98 107"/>
    <path fill="none" stroke="#0000ff" d="M 98 107 L 153 220"/>
    <path fill="none" stroke="#0000ff" d="M 153 220 L 42 161"/>
    <path fill="none" stroke="#0000ff" d="M 42 161 L 167 143"/>
    <path fill="none" stroke="#0000ff" d="M 167 143 L 76 231"/>
    <path fill="none" stroke="#0000ff" d="M 76 231 L 98 107"/>
    <path fill="none" stroke="#0000ff" d="M 98 107 L 141 232"/>
    <path fill="none" stroke="#0000ff" d="M 141 232 L 33 156"/>
    <path fill="none" stroke="#0000ff" d="M 33 156 L 165 154"/>
    <path fill="none" stroke="#0000ff" d="M 165 154 L 60 233"/>
    <path fill="none" stroke="#0000ff" d="M 60 233 L 99 107"/>
    <path fill="none" stroke="#0000ff" d="M 99 107 L 128 242"/>
    <path fill="none" stroke="#0000ff" d="M 128 242 L 25 150"/>
    <path fill="none" stroke="#0000ff" d="M 25 150 L 162 164"/>
    <path fill="none" stroke="#0000ff" d="M 162 164 L 42 233"/>
    <path fill="none" stroke="#0000ff" d="M 42 233 L 98 107"/>
    <path fill="none" stroke="#0000ff" d="M 98 107 L 111 250"/>
    <path fill="none" stroke="#0000ff" d="M 111 250 L 17 141"/>
    <path fill="none" stroke="#0000ff" d="M 17 141 L 157 173"/>
    <path fill="none" stroke="#0000ff" d="M 157 173 L 24 229"/>
    <path fill="none" stroke="#0000ff" d="M 24 229 L 98 106"/>
    <path fill="none" stroke="#0000ff" d="M 98 106 L 93 256"/>
    <path fill="none" stroke="#0000ff" d="M 93 256 L 9 132"/>
    <path fill="none" stroke="#0000ff" d="M 9 132 L 150 183"/>
    <path fill="none" stroke="#0000ff" d="M 150 183 L 6 224"/>
    <path fill="none" stroke="#0000ff" d="M 6 224 L 98 106"/>
    <path fill="none" stroke="#0000ff" d="M 98 106 L 74 260"/>
    <path fill="none" stroke="#0000ff" d="M 74 260 L 3 121"/>
    <path fill="none" stroke="#0000ff" d="M 3 121 L 142 192"/>
    <path fill="none" stroke="#0000ff" d="M 142 192 L -12 216"/>
    <path fill="none" stroke="#0000ff" d="M -12 216 L 98 106"/>
    <path fill="none" stroke="#0000ff" d="M 98 106 L 53 262"/>
    <path fill="none" stroke="#0000ff" d="M 53 262 L -2 110"/>
    <path fill="none" stroke="#0000ff" d="M -2 110 L 132 201"/>
    <path fill="none" stroke="#0000ff" d="M 132 201 L -30 207"/>
    <path fill="none" stroke="#0000ff" d="M -30 207 L 98 107"/>
    <path fill="none" stroke="#0000ff" d="M 98 107 L 32 262"/>
    <path fill="none" stroke="#0000ff" d="M 32 262 L -6 98"/>
    <path fill="none" stroke="#0000ff" d="M -6 98 L 121 208"/>
    <path fill="none" stroke="#0000ff" d="M 121 208 L -46 193"/>
    <path fill="none" stroke="#0000ff" d="M -46 193 L 98 106"/>
    <path fill="none" stroke="#0000ff" d="M 98 106 L 11 257"/>
    <path fill="none" stroke="#0000ff" d="M 11 257 L -7 84"/>
    <path fill="none" stroke="#0000ff" d="M -7 84 L 109 213"/>
    <path fill="none" stroke="#0000ff" d="M 109 213 L -61 177"/>
    <path fill="none" stroke="#0000ff" d="M -61 177 L 98 106"/>
    <path fill="none" stroke="#0000ff" d="M 98 106 L -10 250"/>
    <path fill="none" stroke="#0000ff" d="M -10 250 L -7 70"/>
    <path fill="none" stroke="#0000ff" d="M -7 70 L 96 217"/>
    <path fill="none" stroke="#0000ff" d="M 96 217 L -74 158"/>
    <path fill="none" stroke="#0000ff" d="M -74 158 L 98 105"/>
    <path fill="none" stroke="#0000ff" d="M 98 105 L -31 239"/>
    <path fill="none" stroke="#0000ff" d="M -31 239 L -5 55"/>
    <path fill="none" stroke="#0000ff" d="M -5 55 L 82 219"/>
    <path fill="none" stroke="#0000ff" d="M 82 219 L -85 137"/>
    <path fill="none" stroke="#0000ff" d="M -85 137 L 98 105"/>
    <path fill="none" stroke="#0000ff" d="M 98 105 L -51 226"/>
    <path fill="none" stroke="#0000ff" d="M -51 226 L -1 41"/>
    <path fill="none" stroke="#0000ff" d="M -1 41 L 68 220"/>
    <path fill="none" stroke="#0000ff" d="M 68 220 L -93 115"/>
    <path fill="none" stroke="#0000ff" d="M -93 115 L 99 105"/>
    <path fill="none" stroke="#0000ff" d="M 99 105 L -69 210"/>
    <path fill="none" stroke="#0000ff" d="M -69 210 L 5 26"/>
    <path fill="none" stroke="#0000ff" d="M 5 26 L 53 218"/>
    <path fill="none" stroke="#0000ff" d="M 53 218 L -99 91"/>
    <path fill="none" stroke="#0000ff" d="M -99 91 L 99 105"/>
    <path fill="none" stroke="#0000ff" d="M 99 105 L -86 191"/>
    <path fill="none" stroke="#0000ff" d="M -86 191 L 13 13"/>
    <path fill="none" stroke="#0000ff" d="M 13 13 L 38 215"/>
    <path fill="none" stroke="#0000ff" d="M 38 215 L -101 66"/>
    <path fill="none" stroke="#0000ff" d="M -101 66 L 99 105"/>
    <path fill="none" stroke="#0000ff" d="M 99 105 L -101 170"/>
    <path fill="none" stroke="#0000ff" d="M -101 170 L 22 0"/>
    <path fill="none" stroke="#0000ff" d="M 22 0 L 22 210"/>
    <path fill="none" stroke="#0000ff" d="M 22 210 L -101 40"/>
    <path fill="none" stroke="#0000ff" d="M -101 40 L 99 105"/>
    <path fill="none" stroke="#0000ff" d="M 99 105 L -113 146"/>
    <path fill="none" stroke="#0000ff" d="M -113 146 L 34 -12"/>
    <path fill="none" stroke="#0000ff" d="M 34 -12 L 8 202"/>
    <path fill="none" stroke="#0000ff" d="M 8 202 L -97 13"/>
    <path fill="none" stroke="#0000ff" d="M -97 13 L 99 104"/>
    <path fill="none" stroke="#0000ff" d="M 99 104 L -122 119"/>
    <path fill="none" stroke="#0000ff" d="M -122 119 L 48 -24"/>
    <path fill="none" stroke="#0000ff" d="M 48 -24 L -6 191"/>
    <path fill="none" stroke="#0000ff" d="M -6 191 L -89 -15"/>
    <path fill="none" stroke="#0000ff" d="M -89 -15 L 99 103"/>
    <path fill="none" stroke="#0000ff" d="M 99 103 L -129 91"/>
    <path fill="none" stroke="#0000ff" d="M -129 91 L 62 -33"/>
    <path fill="none" stroke="#0000ff" d="M 62 -33 L -20 180"/>
    <path fill="none" stroke="#0000ff" d="M -20 180 L -79 -40"/>
    <path fill="none" stroke="#0000ff" d="M -79 -40 L 98 103"/>
    <path fill="none" stroke="#0000ff" d="M 98 103 L -132 62"/>
    <path fill="none" stroke="#0000ff" d="M -132 62 L 78 -41"/>
    <path fill="none" stroke="#0000ff" d="M 78 -41 L -32 166"/>
    <path fill="none" stroke="#0000ff" d="M -32 166 L -65 -66"/>
    <path fill="none" stroke="#0000ff" d="M -65 -66 L 98 102"/>
    <path fill="none" stroke="#0000ff" d="M 98 102 L -132 32"/>
    <path fill="none" stroke="#0000ff" d="M -132 32 L 95 -46"/>
    <path fill="none" stroke="#0000ff" d="M 95 -46 L -43 151"/>
    <path fill="none" stroke="#0000ff" d="M -43 151 L -47 -89"/>
    <path fill="none" stroke="#0000ff" d="M -47 -89 L 97 103"/>
    <path fill="none" stroke="#0000ff" d="M 97 103 L -128 3"/>
    <path fill="none" stroke="#0000ff" d="M -128 3 L 113 -48"/>
    <path fill="none" stroke="#0000ff" d="M 113 -48 L -52 135"/>
    <path fill="none" stroke="#0000ff" d="M -52 135 L -26 -110"/>
    <path fill="none" stroke="#0000ff" d="M -26 -110 L 97 103"/>
    <path fill="none" stroke="#0000ff" d="M 97 103 L -119 -27"/>
    <path fill="none" stroke="#0000ff" d="M -119 -27 L 132 -49"/>
    <path fill="none" stroke="#0000ff" d="M 132 -49 L -58 116"/>
    <path fill="none" stroke="#0000ff" d="M -58 116 L -1 -130"/>
    <path fill="none" stroke="#0000ff" d="M -1 -130 L 97 102"/>
    <path fill="none" stroke="#0000ff" d="M 97 102 L -106 -57"/>
    <path fill="none" stroke="#0000ff" d="M -106 -57 L 152 -48"/>
    <path fill="none" stroke="#0000ff" d="M 152 -48 L -62 96"/>
    <path fill="none" stroke="#0000ff" d="M -62 96 L 26 -146"/>
    <path fill="none" stroke="#0000ff" d="M 26 -146 L 97 102"/>
    <path fill="none" stroke="#0000ff" d="M 97 102 L -90 -85"/>
    <path fill="none" stroke="#0000ff" d="M -90 -85 L 171 -44"/>
    <path fill="none" stroke="#0000ff" d="M 171 -44 L -64 76"/>
    <path fill="none" stroke="#0000ff" d="M -64 76 L 56 -159"/>
    <path fill="none" stroke="#0000ff" d="M 56 -159 L 97 102"/>
    <path fill="none" stroke="#0000ff" d="M 97 102 L -69 -111"/>
    <path fill="none" stroke="#0000ff" d="M -69 -111 L 191 -37"/>
    <path fill="none" stroke="#0000ff" d="M 191 -37 L -63 55"/>
    <path fill="none" stroke="#0000ff" d="M -63 55 L 88 -169"/>
    <path fill="none" stroke="#0000ff" d="M 88 -169 L 97 101"/>
    <path fill="none" stroke="#0000ff" d="M 97 101 L -45 -136"/>
    <path fill="none" stroke="#0000ff" d="M -45 -136 L 209 -28"/>
    <path fill="none" stroke="#0000ff" d="M 209 -28 L -60 34"/>
    <path fill="none" stroke="#0000ff" d="M -60 34 L 121 -174"/>
    <path fill="none" stroke="#0000ff" d="M 121 -174 L 97 101"/>
    <path fill="none" stroke="#0000ff" d="M 97 101 L -18 -157"/>
    <path fill="none" stroke="#0000ff" d="M -18 -157 L 226 -16"/>
    <path fill="none" stroke="#0000ff" d="M 226 -16 L -54 13"/>
    <path fill="none" stroke="#0000ff" d="M -54 13 L 156 -176"/>
    <path fill="none" stroke="#0000ff" d="M 156 -176 L 97 100"/>
    <path fill="none" stroke="#0000ff" d="M 97 100 L 13 -175"/>
    <path fill="none" stroke="#0000ff" d="M 13 -175 L 243 -2"/>
    <path fill="none" stroke="#0000ff" d="M 243 -2 L -45 -7"/>
    <path fill="none" stroke="#0000ff" d="M -45 -7 L 191 -172"/>
    <path fill="none" stroke="#0000ff" d="M 191 -172 L 97 100"/>
    <path fill="none" stroke="#0000ff" d="M 97 100 L 46 -190"/>
    <path fill="none" stroke="#0000ff" d="M 46 -190 L 257 14"/>
    <path fill="none" stroke="#0000ff" d="M 257 14 L -34 -27"/>
    <path fill="none" stroke="#0000ff" d="M -34 -27 L 226 -165"/>
    <path fill="none" stroke="#0000ff" d="M 226 -165 L 97 99"/>
    <path fill="none" stroke="#0000ff" d="M 97 99 L 81 -201"/>
    <path fill="none" stroke="#0000ff" d="M 81 -201 L 270 32"/>
    <path fill="none" stroke="#0000ff" d="M 270 32 L -20 -46"/>
    <path fill="none" stroke="#0000ff" d="M -20 -46 L 260 -154"/>
    <path fill="none" stroke="#0000ff" d="M 260 -154 L 97 98"/>
    <path fill="none" stroke="#0000ff" d="M 97 98 L 118 -207"/>
    <path fill="none" stroke="#0000ff" d="M 118 -207 L 280 53"/>
    <path fill="none" stroke="#0000ff" d="M 280 53 L -4 -62"/>
    <path fill="none" stroke="#0000ff" d="M -4 -62 L 293 -136"/>
    <path fill="none" stroke="#0000ff" d="M 293 -136 L 96 98"/>
    <path fill="none" stroke="#0000ff" d="M 96 98 L 156 -208"/>
    <path fill="none" stroke="#0000ff" d="M 156 -208 L 288 75"/>
    <path fill="none" stroke="#0000ff" d="M 288 75 L 15 -76"/>
    <path fill="none" stroke="#0000ff" d="M 15 -76 L 325 -114"/>
    <path fill="none" stroke="#0000ff" d="M 325 -114 L 97 99"/>
    <path fill="none" stroke="#0000ff" d="M 97 99 L 195 -203"/>
    <path fill="none" stroke="#0000ff" d="M 195 -203 L 293 99"/>
    <path fill="none" stroke="#0000ff" d="M 293 99 L 36 -88"/>
    <path fill="none" stroke="#0000ff" d="M 36 -88 L 354 -88"/>
    <path fill="none" stroke="#0000ff" d="M 354 -88 L 97 99"/>
    <path fill="none" stroke="#0000ff" d="M 97 99 L 234 -195"/>
    <path fill="none" stroke="#0000ff" d="M 234 -195 L 296 123"/>
    <path fill="none" stroke="#0000ff" d="M 296 123 L 59 -98"/>
    <path fill="none" stroke="#0000ff" d="M 59 -98 L 381 -59"/>
    <path fill="none" stroke="#0000ff" d="M 381 -59 L 98 98"/>
    <path fill="none" stroke="#0000ff" d="M 98 98 L 273 -182"/>
    <path fill="none" stroke="#0000ff" d="M 273 -182 L 296 147"/>
    <path fill="none" stroke="#0000ff" d="M 296 147 L 84 -106"/>
    <path fill="none" stroke="#0000ff" d="M 84 -106 L 404 -26"/>
    <path fill="none" stroke="#0000ff" d="M 404 -26 L 98 98"/>
    <path fill="none" stroke="#0000ff" d="M 98 98 L 309 -163"/>
    <path fill="none" stroke="#0000ff" d="M 309 -163 L 291 173"/>
    <path fill="none" stroke="#0000ff" d="M 291 173 L 108 -109"/>
    <path fill="none" stroke="#0000ff" d="M 108 -109 L 422 11"/>
    <path fill="none" stroke="#0000ff" d="M 422 11 L 97 98"/>
    <path fill="none" stroke="#0000ff" d="M 97 98 L 343 -140"/>
    <path fill="none" stroke="#0000ff" d="M 343 -140 L 284 197"/>
    <path fill="none" stroke="#0000ff" d="M 284 197 L 134 -110"/>
    <path fill="none" stroke="#0000ff" d="M 134 -110 L 436 51"/>
    <path fill="none" stroke="#0000ff" d="M 436 51 L 97 99"/>
    <path fill="none" stroke="#0000ff" d="M 97 99 L 375 -110"/>
    <path fill="none" stroke="#0000ff" d="M 375 -110 L 273 223"/>
    <path fill="none" stroke="#0000ff" d="M 273 223 L 160 -106"/>
    <path fill="none" stroke="#0000ff" d="M 160 -106 L 445 94"/>
    <path fill="none" stroke="#0000ff" d="M 445 94 L 97 100"/>
    <path fill="none" stroke="#0000ff" d="M 97 100 L 404 -77"/>
    <path fill="none" stroke="#0000ff" d="M 404 -77 L 260 246"/>
    <path fill="none" stroke="#0000ff" d="M 260 246 L 186 -100"/>
    <path fill="none" stroke="#0000ff" d="M 186 -100 L 449 137"/>
    <path fill="none" stroke="#0000ff" d="M 449 137 L 97 100"/>
    <path fill="none" stroke="#0000ff" d="M 97 100 L 428 -41"/>
    <path fill="none" stroke="#0000ff" d="M 428 -41 L 243 268"/>
    <path fill="none" stroke="#0000ff" d="M 243 268 L 212 -91"/>
    <path fill="none" stroke="#0000ff" d="M 212 -91 L 448 181"/>
    <path fill="none" stroke="#0000ff" d="M 448 181 L 97 100"/>
    <path fill="none" stroke="#0000ff" d="M 97 100 L 449 -1"/>
    <path fill="none" stroke="#0000ff" d="M 449 -1 L 224 287"/>
    <path fill="none" stroke="#0000ff" d="M 224 287 L 237 -79"/>
    <path fill="none" stroke="#0000ff" d="M 237 -79 L 442 224"/>
    <path fill="none" stroke="#0000ff" d="M 442 224 L 98 99"/>
    <path fill="none" stroke="#0000ff" d="M 98 99 L 465 41"/>
    <path fill="none" stroke="#0000ff" d="M 465 41 L 202 304"/>
    <path fill="none" stroke="#0000ff" d="M 202 304 L 260 -63"/>
    <path fill="none" stroke="#0000ff" d="M 260 -63 L 429 268"/>
    <path fill="none" stroke="#0000ff" d="M 429 268 L 98 99"/>
    <path fill="none" stroke="#0000ff" d="M 98 99 L 476 86"/>
    <path fill="none" stroke="#0000ff" d="M 476 86 L 178 319"/>
    <path fill="none" stroke="#0000ff" d="M 178 319 L 282 -44"/>
    <path fill="none" stroke="#0000ff" d="M 282 -44 L 411 311"/>
    <path fill="none" stroke="#0000ff" d="M 411 311 L 98 100"/>
    <path fill="none" stroke="#0000ff" d="M 98 100 L 481 133"/>
    <path fill="none" stroke="#0000ff" d="M 481 133 L 152 331"/>
    <path fill="none" stroke="#0000ff" d="M 152 331 L 302 -22"/>
    <path fill="none" stroke="#0000ff" d="M 302 -22 L 388 352"/>
    <path fill="none" stroke="#0000ff" d="M 388 352 L 98 100"/>
    <path fill="none" stroke="#0000ff" d="M 98 100 L 479 181"/>
    <path fill="none" stroke="#0000ff" d="M 479 181 L 123 340"/>
    <path fill="none" stroke="#0000ff" d="M 123 340 L 318 2"/>
    <path fill="none" stroke="#0000ff" d="M 318 2 L 359 390"/>
    <path fill="none" stroke="#0000ff" d="M 359 390 L 98 100"/>
    <path fill="none" stroke="#0000ff" d="M 98 100 L 472 229"/>
    <path fill="none" stroke="#0000ff" d="M 472 229 L 93 345"/>
    <path fill="none" stroke="#0000ff" d="M 93 345 L 331 29"/>
    <path fill="none" stroke="#0000ff" d="M 331 29 L 324 425"/>
    <path fill="none" stroke="#0000ff" d="M 324 425 L 97 101"/>
    <path fill="none" stroke="#0000ff" d="M 97 101 L 458 277"/>
    <path fill="none" stroke="#0000ff" d="M 458 277 L 62 347"/>
    <path fill="none" stroke="#0000ff" d="M 62 347 L 341 58"/>
    <path fill="none" stroke="#0000ff" d="M 341 58 L 285 456"/>
    <path fill="none" stroke="#0000ff" d="M 285 456 L 96 101"/>
    <path fill="none" stroke="#0000ff" d="M 96 101 L 438 323"/>
    <path fill="none" stroke="#0000ff" d="M 438 323 L 31 344"/>
    <path fill="none" stroke="#0000ff" d="M 31 344 L 348 87"/>
    <path fill="none" stroke="#0000ff" d="M 348 87 L 242 481"/>
    <path fill="none" stroke="#0000ff" d="M 242 481 L 96 100"/>
    <path fill="none" stroke="#0000ff" d="M 96 100 L 413 366"/>
    <path fill="none" stroke="#0000ff" d="M 413 366 L 0 337"/>
    <path fill="none" stroke="#0000ff" d="M 0 337 L 351 118"/>
    <path fill="none" stroke="#0000ff" d="M 351 118 L 196 502"/>
    <path fill="none" stroke="#0000ff" d="M 196 502 L 96 100"/>
    <path fill="none" stroke="#0000ff" d="M 96 100 L 382 407"/>
    <path fill="none" stroke="#0000ff" d="M 382 407 L -30 327"/>
    <path fill="none" stroke="#0000ff" d="M -30 327 L 351 150"/>
    <path fill="none" stroke="#0000ff" d="M 351 150 L 147 517"/>
    <path fill="none" stroke="#0000ff" d="M 147 517 L 96 100"/>
    <path fill="none" stroke="#0000ff" d="M 96 100 L 346 445"/>
    <path fill="none" stroke="#0000ff" d="M 346 445 L -59 313"/>
    <path fill="none" stroke="#0000ff" d="M -59 313 L 346 181"/>
    <path fill="none" stroke="#0000ff" d="M 346 181 L 96 526"/>
    <path fill="none" stroke="#0000ff" d="M 96 526 L 96 100"/>
    <path fill="none" stroke="#0000ff" d="M 96 100 L 305 478"/>
    <path fill="none" stroke="#0000ff" d="M 305 478 L -87 295"/>
    <path fill="none" stroke="#0000ff" d="M -87 295 L 337 213"/>
    <path fill="none" stroke="#0000ff" d="M 337 213 L 42 529"/>
    <path fill="none" stroke="#0000ff" d="M 42 529 L 95 100"/>
    <path fill="none" stroke="#0000ff" d="M 95 100 L 259 506"/>
    <path fill="none" stroke="#0000ff" d="M 259 506 L -112 274"/>
    <path fill="none" stroke="#0000ff" d="M -112 274 L 325 243"/>
    <path fill="none" stroke="#0000ff" d="M 325 243 L -11 525"/>
    <path fill="none" stroke="#0000ff" d="M -11 525 L 95 100"/>
    <path fill="none" stroke="#0000ff" d="M 95 100 L 210 529"/>
    <path fill="none" stroke="#0000ff" d="M 210 529 L -135 250"/>
    <path fill="none" stroke="#0000ff" d="M -135 250 L 308 273"/>
    <path fill="none" stroke="#0000ff" d="M 308 273 L -64 515"/>
    <path fill="none" stroke="#0000ff" d="M -64 515 L 95 100"/>
    <path fill="none" stroke="#0000ff" d="M 95 100 L 158 546"/>
    <path fill="none" stroke="#0000ff" d="M 158 546 L -155 222"/>
    <path fill="none" stroke="#0000ff" d="M -155 222 L 288 300"/>
    <path fill="none" stroke="#0000ff" d="M 288 300 L -116 497"/>
    <path fill="none" stroke="#0000ff" d="M -116 497 L 95 100"/>
    <path fill="none" stroke="#0000ff" d="M 95 100 L 103 556"/>
    <path fill="none" stroke="#0000ff" d="M 103 556 L -171 192"/>
    <path fill="none" stroke="#0000ff" d="M -171 192 L 265 325"/>
    <path fill="none" stroke="#0000ff" d="M 265 325 L -166 473"/>
    <path fill="none" stroke="#0000ff" d="M -166 473 L 96 99"/>
    <path fill="none" stroke="#0000ff" d="M 96 99 L 48 558"/>
    <path fill="none" stroke="#0000ff" d="M 48 558 L -183 158"/>
    <path fill="none" stroke="#0000ff" d="M -183 158 L 239 346"/>
    <path fill="none" stroke="#0000ff" d="M 239 346 L -213 442"/>
    <path fill="none" stroke="#0000ff" d="M -213 442 L 96 99"/>
    <path fill="none" stroke="#0000ff" d="M 96 99 L -9 555"/>
    <path fill="none" stroke="#0000ff" d="M -9 555 L -192 124"/>
    <path fill="none" stroke="#0000ff" d="M -192 124 L 209 365"/>
    <path fill="none" stroke="#0000ff" d="M 209 365 L -257 406"/>
    <path fill="none" stroke="#0000ff" d="M -257 406 L 96 99"/>
    <path fill="none" stroke="#0000ff" d="M 96 99 L -66 544"/>
    <path fill="none" stroke="#0000ff" d="M -66 544 L -197 88"/>
    <path fill="none" stroke="#0000ff" d="M -197 88 L 177 380"/>
    <path fill="none" stroke="#0000ff" d="M 177 380 L -297 363"/>
    <path fill="none" stroke="#0000ff" d="M -297 363 L 96 98"/>
    <path fill="none" stroke="#0000ff" d="M 96 98 L -122 526"/>
    <path fill="none" stroke="#0000ff" d="M -122 526 L -197 52"/>
    <path fill="none" stroke="#0000ff" d="M -197 52 L 142 391"/>
    <path fill="none" stroke="#0000ff" d="M 142 391 L -332 316"/>
    <path fill="none" stroke="#0000ff" d="M -332 316 L 96 98"/>
    <path fill="none" stroke="#0000ff" d="M 96 98 L -176 501"/>
    <path fill="none" stroke="#0000ff" d="M -176 501 L -193 15"/>
    <path fill="none" stroke="#0000ff" d="M -193 15 L 106 398"/>
    <path fill="none" stroke="#0000ff" d="M 106 398 L -361 264"/>
    <path fill="none" stroke="#0000ff" d="M -361 264 L 96 98"/>
    <path fill="none" stroke="#0000ff" d="M 96 98 L -227 469"/>
    <path fill="none" stroke="#0000ff" d="M -227 469 L -184 -21"/>
    <path fill="none" stroke="#0000ff" d="M -184 -21 L 69 401"/>
    <path fill="none" stroke="#0000ff" d="M 69 401 L -384 209"/>
    <path fill="none" stroke="#0000ff" d="M -384 209 L 95 98"/>
    <path fill="none" stroke="#0000ff" d="M 95 98 L -275 431"/>
    <path fill="none" stroke="#0000ff" d="M -275 431 L -171 -56"/>
    <path fill="none" stroke="#0000ff" d="M -171 -56 L 32 399"/>
    <path fill="none" stroke="#0000ff" d="M 32 399 L -399 150"/>
    <path fill="none" stroke="#0000ff" d="M -399 150 L 96 98"/>
    <path fill="none" stroke="#0000ff" d="M 96 98 L -317 387"/>
    <path fill="none" stroke="#0000ff" d="M -317 387 L -153 -90"/>
    <path fill="none" stroke="#0000ff" d="M -153 -90 L -6 392"/>
    <path fill="none" stroke="#0000ff" d="M -6 392 L -409 89"/>
    <path fill="none" stroke="#0000ff" d="M -409 89 L 95 98"/>
    <path fill="none" stroke="#0000ff" d="M 95 98 L -355 337"/>
    <path fill="none" stroke="#0000ff" d="M -355 337 L -131 -121"/>
    <path fill="none" stroke="#0000ff" d="M -131 -121 L -42 381"/>
    <path fill="none" stroke="#0000ff" d="M -42 381 L -409 27"/>
    <path fill="none" stroke="#0000ff" d="M -409 27 L 96 98"/>
    <path fill="none" stroke="#0000ff" d="M 96 98 L -386 283"/>
    <path fill="none" stroke="#0000ff" d="M -386 283 L -105 -150"/>
    <path fill="none" stroke="#0000ff" d="M -105 -150 L -78 365"/>
    <path fill="none" stroke="#0000ff" d="M -78 365 L -403 -36"/>
    <path fill="none" stroke="#0000ff" d="M -403 -36 L 95 98"/>
    <path fill="none" stroke="#0000ff" d="M 95 98 L -411 224"/>
    <path fill="none" stroke="#0000ff" d="M -411 224 L -75 -176"/>
    <path fill="none" stroke="#0000ff" d="M -75 -176 L -111 345"/>
    <path fill="none" stroke="#0000ff" d="M -111 345 L -388 -98"/>
    <path fill="none" stroke="#0000ff" d="M -388 -98 L 96 98"/>
    <path fill="none" stroke="#0000ff" d="M 96 98 L -428 162"/>
    <path fill="none" stroke="#0000ff" d="M -428 162 L -42 -198"/>
    <path fill="none" stroke="#0000ff" d="M -42 -198 L -143 320"/>
    <path fill="none" stroke="#0000ff" d="M -143 320 L -366 -159"/>
    <path fill="none" stroke="#0000ff" d="M -366 -159 L 96 97"/>
    <path fill="none" stroke="#0000ff" d="M 96 97 L -438 97"/>
    <path fill="none" stroke="#0000ff" d="M -438 97 L -6 -217"/>
    <path fill="none" stroke="#0000ff" d="M -6 -217 L -171 291"/>
    <path fill="none" stroke="#0000ff" d="M -171 291 L -336 -217"/>
    <path fill="none" stroke="#0000ff" d="M -336 -217 L 96 97"/>
    <path fill="none" stroke="#0000ff" d="M 96 97 L -440 31"/>
    <path fill="none" stroke="#0000ff" d="M -440 31 L 32 -231"/>
    <path fill="none" stroke="#0000ff" d="M 32 -231 L -196 258"/>
    <path fill="none" stroke="#0000ff" d="M -196 258 L -299 -272"/>
    <path fill="none" stroke="#0000ff" d="M -299 -272 L 96 96"/>
    <path fill="none" stroke="#0000ff" d="M 96 96 L -434 -36"/>
    <path fill="none" stroke="#0000ff" d="M -434 -36 L 72 -241"/>
    <path fill="none" stroke="#0000ff" d="M 72 -241 L -217 222"/>
    <path fill="none" stroke="#0000ff" d="M -217 222 L -255 -323"/>
    <path fill="none" stroke="#0000ff" d="M -255 -323 L 96 95"/>
    <path fill="none" stroke="#0000ff" d="M 96 95 L -419 -103"/>
    <path fill="none" stroke="#0000ff" d="M -419 -103 L 114 -246"/>
    <path fill="none" stroke="#0000ff" d="M 114 -246 L -233 183"/>
    <path fill="none" stroke="#0000ff" d="M -233 183 L -204 -368"/>
    <path fill="none" stroke="#0000ff" d="M -204 -368 L 97 95"/>
    <path fill="none" stroke="#0000ff" d="M 97 95 L -396 -167"/>
    <path fill="none" stroke="#0000ff" d="M -396 -167 L 157 -245"/>
    <path fill="none" stroke="#0000ff" d="M 157 -245 L -244 143"/>
    <path fill="none" stroke="#0000ff" d="M -244 143 L -147 -407"/>
    <path fill="none" stroke="#0000ff" d="M -147 -407 L 98 95"/>
    <path fill="none" stroke="#0000ff" d="M 98 95 L -364 -228"/>
    <path fill="none" stroke="#0000ff" d="M -364 -228 L 200 -238"/>
    <path fill="none" stroke="#0000ff" d="M 200 -238 L -250 101"/>
    <path fill="none" stroke="#0000ff" d="M -250 101 L -85 -438"/>
    <path fill="none" stroke="#0000ff" d="M -85 -438 L 99 95"/>
    <path fill="none" stroke="#0000ff" d="M 99 95 L -325 -286"/>
    <path fill="none" stroke="#0000ff" d="M -325 -286 L 242 -226"/>
    <path fill="none" stroke="#0000ff" d="M 242 -226 L -252 59"/>
    <path fill="none" stroke="#0000ff" d="M -252 59 L -20 -462"/>
    <path fill="none" stroke="#0000ff" d="M -20 -462 L 99 96"/>
    <path fill="none" stroke="#0000ff" d="M 99 96 L -279 -339"/>
    <path fill="none" stroke="#0000ff" d="M -279 -339 L 282 -209"/>
    <path fill="none" stroke="#0000ff" d="M 282 -209 L -248 16"/>
    <path fill="none" stroke="#0000ff" d="M -248 16 L 49 -478"/>
    <path fill="none" stroke="#0000ff" d="M 49 -478 L 99 96"/>
    <path fill="none" stroke="#0000ff" d="M 99 96 L -226 -387"/>
    <path fill="none" stroke="#0000ff" d="M -226 -387 L 321 -188"/>
    <path fill="none" stroke="#0000ff" d="M 321 -188 L -238 -28"/>
    <path fill="none" stroke="#0000ff" d="M -238 -28 L 120 -487"/>
    <path fill="none" stroke="#0000ff" d="M 120 -487 L 100 95"/>
    <path fill="none" stroke="#0000ff" d="M 100 95 L -167 -429"/>
    <path fill="none" stroke="#0000ff" d="M -167 -429 L 357 -162"/>
    <path fill="none" stroke="#0000ff" d="M 357 -162 L -224 -70"/>
    <path fill="none" stroke="#0000ff" d="M -224 -70 L 192 -486"/>
    <path fill="none" stroke="#0000ff" d="M 192 -486 L 100 95"/>
    <path fill="none" stroke="#0000ff" d="M 100 95 L -103 -463"/>
    <path fill="none" stroke="#0000ff" d="M -103 -463 L 389 -131"/>
    <path fill="none" stroke="#0000ff" d="M 389 -131 L -205 -110"/>
    <path fill="none" stroke="#0000ff" d="M -205 -110 L 263 -476"/>
    <path fill="none" stroke="#0000ff" d="M 263 -476 L 99 95"/>
</svg>
