<svg width="200" height="200" viewBox="0 0 200 200" xmlns="http://www.w3.org/2000/svg">
    <defs/>
    <path fill="#000000" stroke="none" d="M 0 0 L 200 0 L 200 200 L 0 200 Z"/>
    <path fill="none" stroke="#d2b48c" d="M 100 100 L 103 91"/>
    <path fill="none" stroke="#d2b48c" d="M 103 91 L 94 88"/>
    <path fill="none" stroke="#d2b48c" d="M 94 88 L 91 97"/>
    <path fill="none" stroke="#d2b48c" d="M 91 97 L 100 100"/>
    <path fill="none" stroke="#ff0000" d="M 100 100 L 106 92"/>
    <path fill="none" stroke="#ff0000" d="M 106 92 L 98 86"/>
    <path fill="none" stroke="#ff0000" d="M 98 86 L 92 94"/>
    <path fill="none" stroke="#ff0000" d="M 92 94 L 100 100"/>
    <path fill="none" stroke="#ffff00" d="M 100 100 L 109 95"/>
    <path fill="none" stroke="#ffff00" d="M 109 95 L 104 86"/>
    <path fill="none" stroke="#ffff00" d="M 104 86 L 95 91"/>
    <path fill="none" stroke="#ffff00" d="M 95 91 L 100 100"/>
    <path fill="none" stroke="#a52a2a" d="M 100 100 L 110 98"/>
    <path fill="none" stroke="#a52a2a" d="M 110 98 L 108 88"/>
    <path fill="none" stroke="#a52a2a" d="M 108 88 L 98 90"/>
    <path fill="none" stroke="#a52a2a" d="M 98 90 L 100 100"/>
    <path fill="none" stroke="#228b22" d="M 100 100 L 110 102"/>
    <path fill="none" stroke="#228b22" d="M 110 102 L 112 92"/>
    <path fill="none" stroke="#228b22" d="M 112 92 L 102 90"/>
    <path fill="none" stroke="#228b22" d="M 102 90 L 100 100"/>
    <path fill="none" stroke="#ff0000" d="M 100 100 L 109 105"/>
    <path fill="none" stroke="#ff0000" d="M 109 105 L 114 96"/>
    <path fill="none" stroke="#ff0000" d="M 114 96 L 105 91"/>
    <path fill="none" stroke="#ff0000" d="M 105 91 L 100 100"/>
    <path fill="none" stroke="#ffff00" d="M 100 100 L 106 108"/>
    <path fill="none" stroke="#ffff00" d="M 106 108 L 114 102"/>
    <path fill="none" stroke="#ffff00" d="M 114 102 L 108 94"/>
    <path fill="none" stroke="#ffff00" d="M 108 94 L 100 100"/>
    <path fill="none" stroke="#a52a2a" d="M 100 100 L 103 109"/>
    <path fill="none" stroke="#a52a2a" d="M 103 109 L 112 106"/>
    <path fill="none" stroke="#a52a2a" d="M 112 106 L 109 97"/>
    <path fill="none" stroke="#a52a2a" d="M 109 97 L 100 100"/>
    <path fill="none" stroke="#228b22" d="M 100 100 L 100 110"/>
    <path fill="none" stroke="#228b22" d="M 100 110 L 110 110"/>
    <path fill="none" stroke="#228b22" d="M 110 110 L 110 100"/>
    <path fill="none" stroke="#228b22" d="M 110 100 L 100 100"/>
    <path fill="none" stroke="#ff0000" d="M 100 100 L 97 109"/>
    <path fill="none" stroke="#ff0000" d="M 97 109 L 106 112"/>
    <path fill="none" stroke="#ff0000" d="M 106 112 L 109 103"/>
    <path fill="none" stroke="#ff0000" d="M 109 103 L 100 100"/>
    <path fill="none" stroke="#ffff00" d="M 100 100 L 94 108"/>
    <path fill="none" stroke="#ffff00" d="M 94 108 L 102 114"/>
    <path fill="none" stroke="#ffff00" d="M 102 114 L 108 106"/>
    <path fill="none" stroke="#ffff00" d="M 108 106 L 100 100"/>
    <path fill="none" stroke="#a52a2a" d="M 100 100 L 91 105"/>
    <path fill="none" stroke="#a52a2a" d="M 91 105 L 96 114"/>
    <path fill="none" stroke="#a52a2a" d="M 96 114 L 105 109"/>
    <path fill="none" stroke="#a52a2a" d="M 105 109 L 100 100"/>
    <path fill="none" stroke="#228b22" d="M 100 100 L 90 102"/>
    <path fill="none" stroke="#228b22" d="M 90 102 L 92 112"/>
    <path fill="none" stroke="#228b22" d="M 92 112 L 102 110"/>
    <path fill="none" stroke="#228b22" d="M 102 110 L 100 100"/>
    <path fill="none" stroke="#ff0000" d="M 100 100 L 90 98"/>
    <path fill="none" stroke="#ff0000" d="M 90 98 L 88 108"/>
    <path fill="none" stroke="#ff0000" d="M 88 108 L 98 110"/>
    <path fill="none" stroke="#ff0000" d="M 98 110 L 100 100"/>
    <path fill="none" stroke="#ffff00" d="M 100 100 L 91 95"/>
    <path fill="none" stroke="#ffff00" d="M 91 95 L 86 104"/>
    <path fill="none" stroke="#ffff00" d="M 86 104 L 95 109"/>
    <path fill="none" stroke="#ffff00" d="M 95 109 L 100 100"/>
    <path fill="none" stroke="#a52a2a" d="M 100 100 L 94 92"/>
    <path fill="none" stroke="#a52a2a" d="M 94 92 L 86 98"/>
    <path fill="none" stroke="#a52a2a" d="M 86 98 L 92 106"/>
    <path fill="none" stroke="#a52a2a" d="M 92 106 L 100 100"/>
    <path fill="none" stroke="#228b22" d="M 100 100 L 97 91"/>
    <path fill="none" stroke="#228b22" d="M 97 91 L 88 94"/>
    <path fill="none" stroke="#228b22" d="M 88 94 L 91 103"/>
    <path fill="none" stroke="#228b22" d="M 91 103 L 100 100"/>
    <path fill="none" stroke="#ff0000" d="M 100 100 L 100 90"/>
    <path fill="none" stroke="#ff0000" d="M 100 90 L 90 90"/>
    <path fill="none" stroke="#ff0000" d="M 90 90 L 90 100"/>
    <path fill="none" stroke="#ff0000" d="M 90 100 L 100 100"/>
    <path fill="none" stroke="#ffff00" d="M 100 100 L 103 91"/>
    <path fill="none" stroke="#ffff00" d="M 103 91 L 94 88"/>
    <path fill="none" stroke="#ffff00" d="M 94 88 L 91 97"/>
    <path fill="none" stroke="#ffff00" d="M 91 97 L 100 100"/>
    <path fill="none" stroke="#a52a2a" d="M 100 100 L 106 92"/>
    <path fill="none" stroke="#a52a2a" d="M 106 92 L 98 86"/>
    <path fill="none" stroke="#a52a2a" d="M 98 86 L 92 94"/>
    <path fill="none" stroke="#a52a2a" d="M 92 94 L 100 100"/>
    <path fill="none" stroke="#228b22" d="M 100 100 L 109 95"/>
    <path fill="none" stroke="#228b22" d="M 109 95 L 104 86"/>
    <path fill="none" stroke="#228b22" d="M 104 86 L 95 91"/>
    <path fill="none" stroke="#228b22" d="M 95 91 L 100 100"/>
    <path fill="none" stroke="#ff0000" d="M 100 100 L 110 98"/>
    <path fill="none" stroke="#ff0000" d="M 110 98 L 108 88"/>
    <path fill="none" stroke="#ff0000" d="M 108 88 L 98 90"/>
    <path fill="none" stroke="#ff0000" d="M 98 90 L 100 100"/>
    <path fill="none" stroke="#ffff00" d="M 100 100 L 110 102"/>
    <path fill="none" stroke="#ffff00" d="M 110 102 L 112 92"/>
    <path fill="none" stroke="#ffff00" d="M 112 92 L 102 90"/>
    <path fill="none" stroke="#ffff00" d="M 102 90 L 100 100"/>
    <path fill="none" stroke="#a52a2a" d="M 100 100 L 109 105"/>
    <path fill="none" stroke="#a52a2a" d="M 109 105 L 114 96"/>
    <path fill="none" stroke="#a52a2a" d="M 114 96 L 105 91"/>
    <path fill="none" stroke="#a52a2a" d="M 105 91 L 100 100"/>
    <path fill="none" stroke="#228b22" d="M 100 100 L 106 108"/>
    <path fill="none" stroke="#228b22" d="M 106 108 L 114 102"/>
    <path fill="none" stroke="#228b22" d="M 114 102 L 108 94"/>
    <path fill="none" stroke="#228b22" d="M 108 94 L 100 100"/>
    <path fill="none" stroke="#ff0000" d="M 100 100 L 103 109"/>
    <path fill="none" stroke="#ff0000" d="M 103 109 L 112 106"/>
    <path fill="none" stroke="#ff0000" d="M 112 106 L 109 97"/>
    <path fill="none" stroke="#ff0000" d="M 109 97 L 100 100"/>
    <path fill="none" stroke="#ffff00" d="M 100 100 L 100 110"/>
    <path fill="none" stroke="#ffff00" d="M 100 110 L 110 110"/>
    <path fill="none" stroke="#ffff00" d="M 110 110 L 110 100"/>
    <path fill="none" stroke="#ffff00" d="M 110 100 L 100 100"/>
    <path fill="none" stroke="#a52a2a" d="M 100 100 L 97 109"/>
    <path fill="none" stroke="#a52a2a" d="M 97 109 L 106 112"/>
    <path fill="none" stroke="#a52a2a" d="M 106 112 L 109 103"/>
    <path fill="none" stroke="#a52a2a" d="M 109 103 L 100 100"/>
    <path fill="none" stroke="#228b22" d="M 100 100 L 94 108"/>
    <path fill="none" stroke="#228b22" d="M 94 108 L 102 114"/>
    <path fill="none" stroke="#228b22" d="M 102 114 L 108 106"/>
    <path fill="none" stroke="#228b22" d="M 108 106 L 100 100"/>
</svg>
