<svg width="200" height="200" viewBox="0 0 200 200" xmlns="http://www.w3.org/2000/svg">
    <defs/>
    <path fill="#000000" stroke="none" d="M 0 0 L 200 0 L 200 200 L 0 200 Z"/>
    <path fill="none" stroke="#ffffff" d="M 0 0 L 0 -15"/>
    <path fill="none" stroke="#ffffff" d="M 0 0 L 6 -10"/>
    <path fill="none" stroke="#ffffff" d="M 0 0 L 15 0"/>
    <path fill="none" stroke="#ffffff" d="M 25 0 L 25 -15"/>
    <path fill="none" stroke="#ffffff" d="M 25 0 L 31 -10"/>
    <path fill="none" stroke="#ffffff" d="M 25 0 L 40 0"/>
    <path fill="none" stroke="#ffffff" d="M 50 0 L 50 -15"/>
    <path fill="none" stroke="#ffffff" d="M 50 0 L 56 -10"/>
    <path fill="none" stroke="#ffffff" d="M 50 0 L 65 0"/>
    <path fill="none" stroke="#ffffff" d="M 75 0 L 75 -15"/>
    <path fill="none" stroke="#ffffff" d="M 75 0 L 81 -10"/>
    <path fill="none" stroke="#ffffff" d="M 75 0 L 90 0"/>
    <path fill="none" stroke="#ffffff" d="M 100 0 L 100 -15"/>
    <path fill="none" stroke="#ffffff" d="M 100 0 L 106 -10"/>
    <path fill="none" stroke="#ffffff" d="M 100 0 L 115 0"/>
    <path fill="none" stroke="#ffffff" d="M 125 0 L 125 -15"/>
    <path fill="none" stroke="#ffffff" d="M 125 0 L 131 -10"/>
    <path fill="none" stroke="#ffffff" d="M 125 0 L 140 0"/>
    <path fill="none" stroke="#ffffff" d="M 150 0 L 150 -15"/>
    <path fill="none" stroke="#ffffff" d="M 150 0 L 156 -10"/>
    <path fill="none" stroke="#ffffff" d="M 150 0 L 165 0"/>
    <path fill="none" stroke="#ffffff" d="M 175 0 L 175 -15"/>
    <path fill="none" stroke="#ffffff" d="M 175 0 L 181 -10"/>
    <path fill="none" stroke="#ffffff" d="M 175 0 L 190 0"/>
    <path fill="none" stroke="#ffffff" d="M 200 0 L 200 -15"/>
    <path fill="none" stroke="#ffffff" d="M 200 0 L 206 -10"/>
    <path fill="none" stroke="#ffffff" d="M 200 0 L 215 0"/>
    <path fill="none" stroke="#ffffff" d="M 0 25 L 0 10"/>
    <path fill="none" stroke="#ffffff" d="M 0 25 L 6 15"/>
    <path fill="none" stroke="#ffffff" d="M 0 25 L 15 25"/>
    <path fill="none" stroke="#ffffff" d="M 25 25 L 25 10"/>
    <path fill="none" stroke="#ffffff" d="M 25 25 L 31 15"/>
    <path fill="none" stroke="#ffffff" d="M 25 25 L 40 25"/>
    <path fill="none" stroke="#ffffff" d="M 50 25 L 50 10"/>
    <path fill="none" stroke="#ffffff" d="M 50 25 L 56 15"/>
    <path fill="none" stroke="#ffffff" d="M 50 25 L 65 25"/>
    <path fill="none" stroke="#ffffff" d="M 75 25 L 75 10"/>
    <path fill="none" stroke="#ffffff" d="M 75 25 L 81 15"/>
    <path fill="none" stroke="#ffffff" d="M 75 25 L 90 25"/>
    <path fill="none" stroke="#ffffff" d="M 100 25 L 100 10"/>
    <path fill="none" stroke="#ffffff" d="M 100 25 L 106 15"/>
    <path fill="none" stroke="#ffffff" d="M 100 25 L 115 25"/>
    <path fill="none" stroke="#ffffff" d="M 125 25 L 125 10"/>
    <path fill="none" stroke="#ffffff" d="M 125 25 L 131 15"/>
    <path fill="none" stroke="#ffffff" d="M 125 25 L 140 25"/>
    <path fill="none" stroke="#ffffff" d="M 150 25 L 150 10"/>
    <path fill="none" stroke="#ffffff" d="M 150 25 L 156 15"/>
    <path fill="none" stroke="#ffffff" d="M 150 25 L 165 25"/>
    <path fill="none" stroke="#ffffff" d="M 175 25 L 175 10"/>
    <path fill="none" stroke="#ffffff" d="M 175 25 L 181 15"/>
    <path fill="none" stroke="#ffffff" d="M 175 25 L 190 25"/>
    <path fill="none" stroke="#ffffff" d="M 200 25 L 200 10"/>
    <path fill="none" stroke="#ffffff" d="M 200 25 L 206 15"/>
    <path fill="none" stroke="#ffffff" d="M 200 25 L 215 25"/>
    <path fill="none" stroke="#ffffff" d="M 0 50 L 0 35"/>
    <path fill="none" stroke="#ffffff" d="M 0 50 L 6 40"/>
    <path fill="none" stroke="#ffffff" d="M 0 50 L 15 50"/>
    <path fill="none" stroke="#ffffff" d="M 25 50 L 25 35"/>
    <path fill="none" stroke="#ffffff" d="M 25 50 L 31 40"/>
    <path fill="none" stroke="#ffffff" d="M 25 50 L 40 50"/>
    <path fill="none" stroke="#ffffff" d="M 50 50 L 50 35"/>
    <path fill="none" stroke="#ffffff" d="M 50 50 L 56 40"/>
    <path fill="none" stroke="#ffffff" d="M 50 50 L 65 50"/>
    <path fill="none" stroke="#ffffff" d="M 75 50 L 75 35"/>
    <path fill="none" stroke="#ffffff" d="M 75 50 L 81 40"/>
    <path fill="none" stroke="#ffffff" d="M 75 50 L 90 50"/>
    <path fill="none" stroke="#ffffff" d="M 100 50 L 100 35"/>
    <path fill="none" stroke="#ffffff" d="M 100 50 L 106 40"/>
    <path fill="none" stroke="#ffffff" d="M 100 50 L 115 50"/>
    <path fill="none" stroke="#ffffff" d="M 125 50 L 125 35"/>
    <path fill="none" stroke="#ffffff" d="M 125 50 L 131 40"/>
    <path fill="none" stroke="#ffffff" d="M 125 50 L 140 50"/>
    <path fill="none" stroke="#ffffff" d="M 150 50 L 150 35"/>
    <path fill="none" stroke="#ffffff" d="M 150 50 L 156 40"/>
    <path fill="none" stroke="#ffffff" d="M 150 50 L 165 50"/>
    <path fill="none" stroke="#ffffff" d="M 175 50 L 175 35"/>
    <path fill="none" stroke="#ffffff" d="M 175 50 L 181 40"/>
    <path fill="none" stroke="#ffffff" d="M 175 50 L 190 50"/>
    <path fill="none" stroke="#ffffff" d="M 200 50 L 200 35"/>
    <path fill="none" stroke="#ffffff" d="M 200 50 L 206 40"/>
    <path fill="none" stroke="#ffffff" d="M 200 50 L 215 50"/>
    <path fill="none" stroke="#ffffff" d="M 0 75 L 0 60"/>
    <path fill="none" stroke="#ffffff" d="M 0 75 L 6 65"/>
    <path fill="none" stroke="#ffffff" d="M 0 75 L 15 75"/>
    <path fill="none" stroke="#ffffff" d="M 25 75 L 25 60"/>
    <path fill="none" stroke="#ffffff" d="M 25 75 L 31 65"/>
    <path fill="none" stroke="#ffffff" d="M 25 75 L 40 75"/>
    <path fill="none" stroke="#ffffff" d="M 50 75 L 50 60"/>
    <path fill="none" stroke="#ffffff" d="M 50 75 L 56 65"/>
    <path fill="none" stroke="#ffffff" d="M 50 75 L 65 75"/>
    <path fill="none" stroke="#ffffff" d="M 75 75 L 75 60"/>
    <path fill="none" stroke="#ffffff" d="M 75 75 L 81 65"/>
    <path fill="none" stroke="#ffffff" d="M 75 75 L 90 75"/>
    <path fill="none" stroke="#ffffff" d="M 100 75 L 100 60"/>
    <path fill="none" stroke="#ffffff" d="M 100 75 L 106 65"/>
    <path fill="none" stroke="#ffffff" d="M 100 75 L 115 75"/>
    <path fill="none" stroke="#ffffff" d="M 125 75 L 125 60"/>
    <path fill="none" stroke="#ffffff" d="M 125 75 L 131 65"/>
    <path fill="none" stroke="#ffffff" d="M 125 75 L 140 75"/>
    <path fill="none" stroke="#ffffff" d="M 150 75 L 150 60"/>
    <path fill="none" stroke="#ffffff" d="M 150 75 L 156 65"/>
    <path fill="none" stroke="#ffffff" d="M 150 75 L 165 75"/>
    <path fill="none" stroke="#ffffff" d="M 175 75 L 175 60"/>
    <path fill="none" stroke="#ffffff" d="M 175 75 L 181 65"/>
    <path fill="none" stroke="#ffffff" d="M 175 75 L 190 75"/>
    <path fill="none" stroke="#ffffff" d="M 200 75 L 200 60"/>
    <path fill="none" stroke="#ffffff" d="M 200 75 L 206 65"/>
    <path fill="none" stroke="#ffffff" d="M 200 75 L 215 75"/>
    <path fill="none" stroke="#ffffff" d="M 0 100 L 0 85"/>
    <path fill="none" stroke="#ffffff" d="M 0 100 L 6 90"/>
    <path fill="none" stroke="#ffffff" d="M 0 100 L 15 100"/>
    <path fill="none" stroke="#ffffff" d="M 25 100 L 25 85"/>
    <path fill="none" stroke="#ffffff" d="M 25 100 L 31 90"/>
    <path fill="none" stroke="#ffffff" d="M 25 100 L 40 100"/>
    <path fill="none" stroke="#ffffff" d="M 50 100 L 50 85"/>
    <path fill="none" stroke="#ffffff" d="M 50 100 L 56 90"/>
    <path fill="none" stroke="#ffffff" d="M 50 100 L 65 100"/>
    <path fill="none" stroke="#ffffff" d="M 75 100 L 75 85"/>
    <path fill="none" stroke="#ffffff" d="M 75 100 L 81 90"/>
    <path fill="none" stroke="#ffffff" d="M 75 100 L 90 100"/>
    <path fill="none" stroke="#ffffff" d="M 100 100 L 100 85"/>
    <path fill="none" stroke="#ffffff" d="M 100 100 L 106 90"/>
    <path fill="none" stroke="#ffffff" d="M 100 100 L 115 100"/>
    <path fill="none" stroke="#ffffff" d="M 125 100 L 125 85"/>
    <path fill="none" stroke="#ffffff" d="M 125 100 L 131 90"/>
    <path fill="none" stroke="#ffffff" d="M 125 100 L 140 100"/>
    <path fill="none" stroke="#ffffff" d="M 150 100 L 150 85"/>
    <path fill="none" stroke="#ffffff" d="M 150 100 L 156 90"/>
    <path fill="none" stroke="#ffffff" d="M 150 100 L 165 100"/>
    <path fill="none" stroke="#ffffff" d="M 175 100 L 175 85"/>
    <path fill="none" stroke="#ffffff" d="M 175 100 L 181 90"/>
    <path fill="none" stroke="#ffffff" d="M 175 100 L 190 100"/>
    <path fill="none" stroke="#ffffff" d="M 200 100 L 200 85"/>
    <path fill="none" stroke="#ffffff" d="M 200 100 L 206 90"/>
    <path fill="none" stroke="#ffffff" d="M 200 100 L 215 100"/>
    <path fill="none" stroke="#ffffff" d="M 0 125 L 0 110"/>
    <path fill="none" stroke="#ffffff" d="M 0 125 L 6 115"/>
    <path fill="none" stroke="#ffffff" d="M 0 125 L 15 125"/>
    <path fill="none" stroke="#ffffff" d="M 25 125 L 25 110"/>
    <path fill="none" stroke="#ffffff" d="M 25 125 L 31 115"/>
    <path fill="none" stroke="#ffffff" d="M 25 125 L 40 125"/>
    <path fill="none" stroke="#ffffff" d="M 50 125 L 50 110"/>
    <path fill="none" stroke="#ffffff" d="M 50 125 L 56 115"/>
    <path fill="none" stroke="#ffffff" d="M 50 125 L 65 125"/>
    <path fill="none" stroke="#ffffff" d="M 75 125 L 75 110"/>
    <path fill="none" stroke="#ffffff" d="M 75 125 L 81 115"/>
    <path fill="none" stroke="#ffffff" d="M 75 125 L 90 125"/>
    <path fill="none" stroke="#ffffff" d="M 100 125 L 100 110"/>
    <path fill="none" stroke="#ffffff" d="M 100 125 L 106 115"/>
    <path fill="none" stroke="#ffffff" d="M 100 125 L 115 125"/>
    <path fill="none" stroke="#ffffff" d="M 125 125 L 125 110"/>
    <path fill="none" stroke="#ffffff" d="M 125 125 L 131 115"/>
    <path fill="none" stroke="#ffffff" d="M 125 125 L 140 125"/>
    <path fill="none" stroke="#ffffff" d="M 150 125 L 150 110"/>
    <path fill="none" stroke="#ffffff" d="M 150 125 L 156 115"/>
    <path fill="none" stroke="#ffffff" d="M 150 125 L 165 125"/>
    <path fill="none" stroke="#ffffff" d="M 175 125 L 175 110"/>
    <path fill="none" stroke="#ffffff" d="M 175 125 L 181 115"/>
    <path fill="none" stroke="#ffffff" d="M 175 125 L 190 125"/>
    <path fill="none" stroke="#ffffff" d="M 200 125 L 200 110"/>
    <path fill="none" stroke="#ffffff" d="M 200 125 L 206 115"/>
    <path fill="none" stroke="#ffffff" d="M 200 125 L 215 125"/>
    <path fill="none" stroke="#ffffff" d="M 0 150 L 0 135"/>
    <path fill="none" stroke="#ffffff" d="M 0 150 L 6 140"/>
    <path fill="none" stroke="#ffffff" d="M 0 150 L 15 150"/>
    <path fill="none" stroke="#ffffff" d="M 25 150 L 25 135"/>
    <path fill="none" stroke="#ffffff" d="M 25 150 L 31 140"/>
    <path fill="none" stroke="#ffffff" d="M 25 150 L 40 150"/>
    <path fill="none" stroke="#ffffff" d="M 50 150 L 50 135"/>
    <path fill="none" stroke="#ffffff" d="M 50 150 L 56 140"/>
    <path fill="none" stroke="#ffffff" d="M 50 150 L 65 150"/>
    <path fill="none" stroke="#ffffff" d="M 75 150 L 75 135"/>
    <path fill="none" stroke="#ffffff" d="M 75 150 L 81 140"/>
    <path fill="none" stroke="#ffffff" d="M 75 150 L 90 150"/>
    <path fill="none" stroke="#ffffff" d="M 100 150 L 100 135"/>
    <path fill="none" stroke="#ffffff" d="M 100 150 L 106 140"/>
    <path fill="none" stroke="#ffffff" d="M 100 150 L 115 150"/>
    <path fill="none" stroke="#ffffff" d="M 125 150 L 125 135"/>
    <path fill="none" stroke="#ffffff" d="M 125 150 L 131 140"/>
    <path fill="none" stroke="#ffffff" d="M 125 150 L 140 150"/>
    <path fill="none" stroke="#ffffff" d="M 150 150 L 150 135"/>
    <path fill="none" stroke="#ffffff" d="M 150 150 L 156 140"/>
    <path fill="none" stroke="#ffffff" d="M 150 150 L 165 150"/>
    <path fill="none" stroke="#ffffff" d="M 175 150 L 175 135"/>
    <path fill="none" stroke="#ffffff" d="M 175 150 L 181 140"/>
    <path fill="none" stroke="#ffffff" d="M 175 150 L 190 150"/>
    <path fill="none" stroke="#ffffff" d="M 200 150 L 200 135"/>
    <path fill="none" stroke="#ffffff" d="M 200 150 L 206 140"/>
    <path fill="none" stroke="#ffffff" d="M 200 150 L 215 150"/>
    <path fill="none" stroke="#ffffff" d="M 0 175 L 0 160"/>
    <path fill="none" stroke="#ffffff" d="M 0 175 L 6 165"/>
    <path fill="none" stroke="#ffffff" d="M 0 175 L 15 175"/>
    <path fill="none" stroke="#ffffff" d="M 25 175 L 25 160"/>
    <path fill="none" stroke="#ffffff" d="M 25 175 L 31 165"/>
    <path fill="none" stroke="#ffffff" d="M 25 175 L 40 175"/>
    <path fill="none" stroke="#ffffff" d="M 50 175 L 50 160"/>
    <path fill="none" stroke="#ffffff" d="M 50 175 L 56 165"/>
    <path fill="none" stroke="#ffffff" d="M 50 175 L 65 175"/>
    <path fill="none" stroke="#ffffff" d="M 75 175 L 75 160"/>
    <path fill="none" stroke="#ffffff" d="M 75 175 L 81 165"/>
    <path fill="none" stroke="#ffffff" d="M 75 175 L 90 175"/>
    <path fill="none" stroke="#ffffff" d="M 100 175 L 100 160"/>
    <path fill="none" stroke="#ffffff" d="M 100 175 L 106 165"/>
    <path fill="none" stroke="#ffffff" d="M 100 175 L 115 175"/>
    <path fill="none" stroke="#ffffff" d="M 125 175 L 125 160"/>
    <path fill="none" stroke="#ffffff" d="M 125 175 L 131 165"/>
    <path fill="none" stroke="#ffffff" d="M 125 175 L 140 175"/>
    <path fill="none" stroke="#ffffff" d="M 150 175 L 150 160"/>
    <path fill="none" stroke="#ffffff" d="M 150 175 L 156 165"/>
    <path fill="none" stroke="#ffffff" d="M 150 175 L 165 175"/>
    <path fill="none" stroke="#ffffff" d="M 175 175 L 175 160"/>
    <path fill="none" stroke="#ffffff" d="M 175 175 L 181 165"/>
    <path fill="none" stroke="#ffffff" d="M 175 175 L 190 175"/>
    <path fill="none" stroke="#ffffff" d="M 200 175 L 200 160"/>
    <path fill="none" stroke="#ffffff" d="M 200 175 L 206 165"/>
    <path fill="none" stroke="#ffffff" d="M 200 175 L 215 175"/>
    <path fill="none" stroke="#ffffff" d="M 0 200 L 0 185"/>
    <path fill="none" stroke="#ffffff" d="M 0 200 L 6 190"/>
    <path fill="none" stroke="#ffffff" d="M 0 200 L 15 200"/>
    <path fill="none" stroke="#ffffff" d="M 25 200 L 25 185"/>
    <path fill="none" stroke="#ffffff" d="M 25 200 L 31 190"/>
    <path fill="none" stroke="#ffffff" d="M 25 200 L 40 200"/>
    <path fill="none" stroke="#ffffff" d="M 50 200 L 50 185"/>
    <path fill="none" stroke="#ffffff" d="M 50 200 L 56 190"/>
    <path fill="none" stroke="#ffffff" d="M 50 200 L 65 200"/>
    <path fill="none" stroke="#ffffff" d="M 75 200 L 75 185"/>
    <path fill="none" stroke="#ffffff" d="M 75 200 L 81 190"/>
    <path fill="none" stroke="#ffffff" d="M 75 200 L 90 200"/>
    <path fill="none" stroke="#ffffff" d="M 100 200 L 100 185"/>
    <path fill="none" stroke="#ffffff" d="M 100 200 L 106 190"/>
    <path fill="none" stroke="#ffffff" d="M 100 200 L 115 200"/>
    <path fill="none" stroke="#ffffff" d="M 125 200 L 125 185"/>
    <path fill="none" stroke="#ffffff" d="M 125 200 L 131 190"/>
    <path fill="none" stroke="#ffffff" d="M 125 200 L 140 200"/>
    <path fill="none" stroke="#ffffff" d="M 150 200 L 150 185"/>
    <path fill="none" stroke="#ffffff" d="M 150 200 L 156 190"/>
    <path fill="none" stroke="#ffffff" d="M 150 200 L 165 200"/>
    <path fill="none" stroke="#ffffff" d="M 175 200 L 175 185"/>
    <path fill="none" stroke="#ffffff" d="M 175 200 L 181 190"/>
    <path fill="none" stroke="#ffffff" d="M 175 200 L 190 200"/>
    <path fill="none" stroke="#ffffff" d="M 200 200 L 200 185"/>
    <path fill="none" stroke="#ffffff" d="M 200 200 L 206 190"/>
    <path fill="none" stroke="#ffffff" d="M 200 200 L 215 200"/>
</svg>
