<svg width="200" height="200" viewBox="0 0 200 200" xmlns="http://www.w3.org/2000/svg">
    <defs/>
    <path fill="#000000" stroke="none" d="M 0 0 L 200 0 L 200 200 L 0 200 Z"/>
    <path fill="none" stroke="#0000ff" d="M 100 100 L 101 101"/>
    <path fill="none" stroke="#0000ff" d="M 101 101 L 102 100"/>
    <path fill="none" stroke="#00ffff" d="M 102 100 L 99 102"/>
    <path fill="none" stroke="#00ffff" d="M 99 102 L 100 103"/>
    <path fill="none" stroke="#00ff00" d="M 100 103 L 100 98"/>
    <path fill="none" stroke="#00ff00" d="M 100 98 L 99 98"/>
    <path fill="none" stroke="#ff0000" d="M 99 98 L 105 102"/>
    <path fill="none" stroke="#ff0000" d="M 105 102 L 106 101"/>
    <path fill="none" stroke="#ff00ff" d="M 106 101 L 98 106"/>
    <path fill="none" stroke="#ff00ff" d="M 98 106 L 99 107"/>
    <path fill="none" stroke="#ffff00" d="M 99 107 L 99 96"/>
    <path fill="none" stroke="#ffff00" d="M 99 96 L 98 96"/>
    <path fill="none" stroke="#ffffff" d="M 98 96 L 109 103"/>
    <path fill="none" stroke="#ffffff" d="M 109 103 L 110 102"/>
    <path fill="none" stroke="#a52a2a" d="M 110 102 L 97 110"/>
    <path fill="none" stroke="#a52a2a" d="M 97 110 L 98 111"/>
    <path fill="none" stroke="#d2b48c" d="M 98 111 L 98 94"/>
    <path fill="none" stroke="#d2b48c" d="M 98 94 L 97 94"/>
    <path fill="none" stroke="#228b22" d="M 97 94 L 113 104"/>
    <path fill="none" stroke="#228b22" d="M 113 104 L 114 103"/>
    <path fill="none" stroke="#7fffd4" d="M 114 103 L 96 114"/>
    <path fill="none" stroke="#7fffd4" d="M 96 114 L 97 115"/>
    <path fill="none" stroke="#fa8072" d="M 97 115 L 97 92"/>
    <path fill="none" stroke="#fa8072" d="M 97 92 L 96 92"/>
    <path fill="none" stroke="#800080" d="M 96 92 L 118 105"/>
    <path fill="none" stroke="#800080" d="M 118 105 L 119 104"/>
    <path fill="none" stroke="#ffa500" d="M 119 104 L 96 118"/>
    <path fill="none" stroke="#ffa500" d="M 96 118 L 97 119"/>
    <path fill="none" stroke="#808080" d="M 97 119 L 97 90"/>
    <path fill="none" stroke="#808080" d="M 97 90 L 96 90"/>
    <path fill="none" stroke="#00ffff" d="M 96 90 L 123 106"/>
    <path fill="none" stroke="#00ffff" d="M 123 106 L 124 105"/>
    <path fill="none" stroke="#00ff00" d="M 124 105 L 95 122"/>
    <path fill="none" stroke="#00ff00" d="M 95 122 L 96 123"/>
    <path fill="none" stroke="#ff0000" d="M 96 123 L 96 88"/>
    <path fill="none" stroke="#ff0000" d="M 96 88 L 95 88"/>
    <path fill="none" stroke="#ff00ff" d="M 95 88 L 127 107"/>
    <path fill="none" stroke="#ff00ff" d="M 127 107 L 128 106"/>
    <path fill="none" stroke="#ffff00" d="M 128 106 L 94 126"/>
    <path fill="none" stroke="#ffff00" d="M 94 126 L 95 127"/>
    <path fill="none" stroke="#ffffff" d="M 95 127 L 95 86"/>
    <path fill="none" stroke="#ffffff" d="M 95 86 L 94 86"/>
    <path fill="none" stroke="#a52a2a" d="M 94 86 L 131 108"/>
    <path fill="none" stroke="#a52a2a" d="M 131 108 L 132 107"/>
    <path fill="none" stroke="#d2b48c" d="M 132 107 L 93 130"/>
    <path fill="none" stroke="#d2b48c" d="M 93 130 L 94 131"/>
    <path fill="none" stroke="#228b22" d="M 94 131 L 94 84"/>
    <path fill="none" stroke="#228b22" d="M 94 84 L 93 84"/>
    <path fill="none" stroke="#7fffd4" d="M 93 84 L 135 109"/>
    <path fill="none" stroke="#7fffd4" d="M 135 109 L 136 108"/>
    <path fill="none" stroke="#fa8072" d="M 136 108 L 92 134"/>
    <path fill="none" stroke="#fa8072" d="M 92 134 L 93 135"/>
    <path fill="none" stroke="#800080" d="M 93 135 L 93 82"/>
    <path fill="none" stroke="#800080" d="M 93 82 L 92 82"/>
    <path fill="none" stroke="#ffa500" d="M 92 82 L 140 110"/>
    <path fill="none" stroke="#ffa500" d="M 140 110 L 141 109"/>
    <path fill="none" stroke="#808080" d="M 141 109 L 92 138"/>
    <path fill="none" stroke="#808080" d="M 92 138 L 93 139"/>
    <path fill="none" stroke="#00ffff" d="M 93 139 L 93 80"/>
    <path fill="none" stroke="#00ffff" d="M 93 80 L 92 80"/>
    <path fill="none" stroke="#00ff00" d="M 92 80 L 145 111"/>
    <path fill="none" stroke="#00ff00" d="M 145 111 L 146 110"/>
    <path fill="none" stroke="#ff0000" d="M 146 110 L 91 142"/>
    <path fill="none" stroke="#ff0000" d="M 91 142 L 92 143"/>
    <path fill="none" stroke="#ff00ff" d="M 92 143 L 92 78"/>
    <path fill="none" stroke="#ff00ff" d="M 92 78 L 91 78"/>
    <path fill="none" stroke="#ffff00" d="M 91 78 L 149 112"/>
    <path fill="none" stroke="#ffff00" d="M 149 112 L 150 111"/>
    <path fill="none" stroke="#ffffff" d="M 150 111 L 90 146"/>
    <path fill="none" stroke="#ffffff" d="M 90 146 L 91 147"/>
    <path fill="none" stroke="#a52a2a" d="M 91 147 L 91 76"/>
    <path fill="none" stroke="#a52a2a" d="M 91 76 L 90 76"/>
    <path fill="none" stroke="#d2b48c" d="M 90 76 L 153 113"/>
    <path fill="none" stroke="#d2b48c" d="M 153 113 L 154 112"/>
    <path fill="none" stroke="#228b22" d="M 154 112 L 89 150"/>
    <path fill="none" stroke="#228b22" d="M 89 150 L 90 151"/>
    <path fill="none" stroke="#7fffd4" d="M 90 151 L 90 74"/>
    <path fill="none" stroke="#7fffd4" d="M 90 74 L 89 74"/>
    <path fill="none" stroke="#fa8072" d="M 89 74 L 157 114"/>
    <path fill="none" stroke="#fa8072" d="M 157 114 L 158 113"/>
    <path fill="none" stroke="#800080" d="M 158 113 L 88 154"/>
    <path fill="none" stroke="#800080" d="M 88 154 L 89 155"/>
    <path fill="none" stroke="#ffa500" d="M 89 155 L 89 72"/>
    <path fill="none" stroke="#ffa500" d="M 89 72 L 88 72"/>
    <path fill="none" stroke="#808080" d="M 88 72 L 162 115"/>
    <path fill="none" stroke="#808080" d="M 162 115 L 163 114"/>
    <path fill="none" stroke="#00ffff" d="M 163 114 L 88 158"/>
    <path fill="none" stroke="#00ffff" d="M 88 158 L 89 159"/>
    <path fill="none" stroke="#00ff00" d="M 89 159 L 89 70"/>
    <path fill="none" stroke="#00ff00" d="M 89 70 L 88 70"/>
    <path fill="none" stroke="#ff0000" d="M 88 70 L 167 116"/>
    <path fill="none" stroke="#ff0000" d="M 167 116 L 168 115"/>
    <path fill="none" stroke="#ff00ff" d="M 168 115 L 87 162"/>
    <path fill="none" stroke="#ff00ff" d="M 87 162 L 88 163"/>
    <path fill="none" stroke="#ffff00" d="M 88 163 L 88 68"/>
    <path fill="none" stroke="#ffff00" d="M 88 68 L 87 68"/>
    <path fill="none" stroke="#ffffff" d="M 87 68 L 171 117"/>
    <path fill="none" stroke="#ffffff" d="M 171 117 L 172 116"/>
    <path fill="none" stroke="#a52a2a" d="M 172 116 L 86 166"/>
    <path fill="none" stroke="#a52a2a" d="M 86 166 L 87 167"/>
    <path fill="none" stroke="#d2b48c" d="M 87 167 L 87 66"/>
    <path fill="none" stroke="#d2b48c" d="M 87 66 L 86 66"/>
    <path fill="none" stroke="#228b22" d="M 86 66 L 175 118"/>
    <path fill="none" stroke="#228b22" d="M 175 118 L 176 117"/>
    <path fill="none" stroke="#7fffd4" d="M 176 117 L 85 170"/>
    <path fill="none" stroke="#7fffd4" d="M 85 170 L 86 171"/>
    <path fill="none" stroke="#fa8072" d="M 86 171 L 86 64"/>
    <path fill="none" stroke="#fa8072" d="M 86 64 L 85 64"/>
    <path fill="none" stroke="#800080" d="M 85 64 L 179 119"/>
    <path fill="none" stroke="#800080" d="M 179 119 L 180 118"/>
    <path fill="none" stroke="#ffa500" d="M 180 118 L 84 174"/>
    <path fill="none" stroke="#ffa500" d="M 84 174 L 85 175"/>
    <path fill="none" stroke="#808080" d="M 85 175 L 85 62"/>
    <path fill="none" stroke="#808080" d="M 85 62 L 84 62"/>
    <path fill="none" stroke="#00ffff" d="M 84 62 L 184 120"/>
    <path fill="none" stroke="#00ffff" d="M 184 120 L 185 119"/>
    <path fill="none" stroke="#00ff00" d="M 185 119 L 84 178"/>
    <path fill="none" stroke="#00ff00" d="M 84 178 L 85 179"/>
    <path fill="none" stroke="#ff0000" d="M 85 179 L 85 60"/>
    <path fill="none" stroke="#ff0000" d="M 85 60 L 84 60"/>
    <path fill="none" stroke="#ff00ff" d="M 84 60 L 189 121"/>
    <path fill="none" stroke="#ff00ff" d="M 189 121 L 190 120"/>
    <path fill="none" stroke="#ffff00" d="M 190 120 L 83 182"/>
    <path fill="none" stroke="#ffff00" d="M 83 182 L 84 183"/>
    <path fill="none" stroke="#ffffff" d="M 84 183 L 84 58"/>
    <path fill="none" stroke="#ffffff" d="M 84 58 L 83 58"/>
    <path fill="none" stroke="#a52a2a" d="M 83 58 L 193 122"/>
    <path fill="none" stroke="#a52a2a" d="M 193 122 L 194 121"/>
    <path fill="none" stroke="#d2b48c" d="M 194 121 L 82 186"/>
    <path fill="none" stroke="#d2b48c" d="M 82 186 L 83 187"/>
    <path fill="none" stroke="#228b22" d="M 83 187 L 83 56"/>
    <path fill="none" stroke="#228b22" d="M 83 56 L 82 56"/>
    <path fill="none" stroke="#7fffd4" d="M 82 56 L 197 123"/>
    <path fill="none" stroke="#7fffd4" d="M 197 123 L 198 122"/>
    <path fill="none" stroke="#fa8072" d="M 198 122 L 81 190"/>
    <path fill="none" stroke="#fa8072" d="M 81 190 L 82 191"/>
    <path fill="none" stroke="#800080" d="M 82 191 L 82 54"/>
    <path fill="none" stroke="#800080" d="M 82 54 L 81 54"/>
    <path fill="none" stroke="#ffa500" d="M 81 54 L 201 124"/>
    <path fill="none" stroke="#ffa500" d="M 201 124 L 202 123"/>
    <path fill="none" stroke="#808080" d="M 202 123 L 80 194"/>
    <path fill="none" stroke="#808080" d="M 80 194 L 81 195"/>
    <path fill="none" stroke="#00ffff" d="M 81 195 L 81 52"/>
    <path fill="none" stroke="#00ffff" d="M 81 52 L 80 52"/>
    <path fill="none" stroke="#00ff00" d="M 80 52 L 206 125"/>
    <path fill="none" stroke="#00ff00" d="M 206 125 L 207 124"/>
    <path fill="none" stroke="#ff0000" d="M 207 124 L 80 198"/>
    <path fill="none" stroke="#ff0000" d="M 80 198 L 81 199"/>
    <path fill="none" stroke="#ff00ff" d="M 81 199 L 81 50"/>
    <path fill="none" stroke="#ff00ff" d="M 81 50 L 80 50"/>
    <path fill="none" stroke="#ffff00" d="M 80 50 L 211 126"/>
    <path fill="none" stroke="#ffff00" d="M 211 126 L 212 125"/>
    <path fill="none" stroke="#ffffff" d="M 212 125 L 80 202"/>
    <path fill="none" stroke="#ffffff" d="M 80 202 L 81 203"/>
    <path fill="none" stroke="#a52a2a" d="M 81 203 L 81 48"/>
    <path fill="none" stroke="#a52a2a" d="M 81 48 L 80 48"/>
    <path fill="none" stroke="#d2b48c" d="M 80 48 L 216 127"/>
    <path fill="none" stroke="#d2b48c" d="M 216 127 L 217 126"/>
    <path fill="none" stroke="#228b22" d="M 217 126 L 79 206"/>
    <path fill="none" stroke="#228b22" d="M 79 206 L 80 207"/>
    <path fill="none" stroke="#7fffd4" d="M 80 207 L 80 46"/>
    <path fill="none" stroke="#7fffd4" d="M 80 46 L 79 46"/>
    <path fill="none" stroke="#fa8072" d="M 79 46 L 220 128"/>
    <path fill="none" stroke="#fa8072" d="M 220 128 L 221 127"/>
    <path fill="none" stroke="#800080" d="M 221 127 L 78 210"/>
    <path fill="none" stroke="#800080" d="M 78 210 L 79 211"/>
    <path fill="none" stroke="#ffa500" d="M 79 211 L 79 44"/>
    <path fill="none" stroke="#ffa500" d="M 79 44 L 78 44"/>
    <path fill="none" stroke="#808080" d="M 78 44 L 224 129"/>
    <path fill="none" stroke="#808080" d="M 224 129 L 225 128"/>
    <path fill="none" stroke="#00ffff" d="M 225 128 L 77 214"/>
    <path fill="none" stroke="#00ffff" d="M 77 214 L 78 215"/>
    <path fill="none" stroke="#00ff00" d="M 78 215 L 78 42"/>
    <path fill="none" stroke="#00ff00" d="M 78 42 L 77 42"/>
    <path fill="none" stroke="#ff0000" d="M 77 42 L 229 130"/>
    <path fill="none" stroke="#ff0000" d="M 229 130 L 230 129"/>
    <path fill="none" stroke="#ff00ff" d="M 230 129 L 77 218"/>
    <path fill="none" stroke="#ff00ff" d="M 77 218 L 78 219"/>
    <path fill="none" stroke="#ffff00" d="M 78 219 L 78 40"/>
    <path fill="none" stroke="#ffff00" d="M 78 40 L 77 40"/>
    <path fill="none" stroke="#ffffff" d="M 77 40 L 234 131"/>
    <path fill="none" stroke="#ffffff" d="M 234 131 L 235 130"/>
    <path fill="none" stroke="#a52a2a" d="M 235 130 L 77 222"/>
    <path fill="none" stroke="#a52a2a" d="M 77 222 L 78 223"/>
    <path fill="none" stroke="#d2b48c" d="M 78 223 L 78 38"/>
    <path fill="none" stroke="#d2b48c" d="M 78 38 L 77 38"/>
    <path fill="none" stroke="#228b22" d="M 77 38 L 239 132"/>
    <path fill="none" stroke="#228b22" d="M 239 132 L 240 131"/>
    <path fill="none" stroke="#7fffd4" d="M 240 131 L 76 226"/>
    <path fill="none" stroke="#7fffd4" d="M 76 226 L 77 227"/>
    <path fill="none" stroke="#fa8072" d="M 77 227 L 77 36"/>
    <path fill="none" stroke="#fa8072" d="M 77 36 L 76 36"/>
    <path fill="none" stroke="#800080" d="M 76 36 L 243 133"/>
    <path fill="none" stroke="#800080" d="M 243 133 L 244 132"/>
    <path fill="none" stroke="#ffa500" d="M 244 132 L 75 230"/>
    <path fill="none" stroke="#ffa500" d="M 75 230 L 76 231"/>
    <path fill="none" stroke="#808080" d="M 76 231 L 76 34"/>
    <path fill="none" stroke="#808080" d="M 76 34 L 75 34"/>
    <path fill="none" stroke="#00ffff" d="M 75 34 L 247 134"/>
    <path fill="none" stroke="#00ffff" d="M 247 134 L 248 133"/>
    <path fill="none" stroke="#00ff00" d="M 248 133 L 74 234"/>
    <path fill="none" stroke="#00ff00" d="M 74 234 L 75 235"/>
    <path fill="none" stroke="#ff0000" d="M 75 235 L 75 32"/>
    <path fill="none" stroke="#ff0000" d="M 75 32 L 74 32"/>
    <path fill="none" stroke="#ff00ff" d="M 74 32 L 252 135"/>
    <path fill="none" stroke="#ff00ff" d="M 252 135 L 253 134"/>
    <path fill="none" stroke="#ffff00" d="M 253 134 L 74 238"/>
    <path fill="none" stroke="#ffff00" d="M 74 238 L 75 239"/>
    <path fill="none" stroke="#ffffff" d="M 75 239 L 75 30"/>
    <path fill="none" stroke="#ffffff" d="M 75 30 L 74 30"/>
    <path fill="none" stroke="#a52a2a" d="M 74 30 L 257 136"/>
    <path fill="none" stroke="#a52a2a" d="M 257 136 L 258 135"/>
    <path fill="none" stroke="#d2b48c" d="M 258 135 L 74 242"/>
    <path fill="none" stroke="#d2b48c" d="M 74 242 L 75 243"/>
    <path fill="none" stroke="#228b22" d="M 75 243 L 75 28"/>
    <path fill="none" stroke="#228b22" d="M 75 28 L 74 28"/>
    <path fill="none" stroke="#7fffd4" d="M 74 28 L 262 137"/>
    <path fill="none" stroke="#7fffd4" d="M 262 137 L 263 136"/>
    <path fill="none" stroke="#fa8072" d="M 263 136 L 73 246"/>
    <path fill="none" stroke="#fa8072" d="M 73 246 L 74 247"/>
    <path fill="none" stroke="#800080" d="M 74 247 L 74 26"/>
    <path fill="none" stroke="#800080" d="M 74 26 L 73 26"/>
    <path fill="none" stroke="#ffa500" d="M 73 26 L 266 138"/>
    <path fill="none" stroke="#ffa500" d="M 266 138 L 267 137"/>
    <path fill="none" stroke="#808080" d="M 267 137 L 72 250"/>
    <path fill="none" stroke="#808080" d="M 72 250 L 73 251"/>
    <path fill="none" stroke="#00ffff" d="M 73 251 L 73 24"/>
    <path fill="none" stroke="#00ffff" d="M 73 24 L 72 24"/>
    <path fill="none" stroke="#00ff00" d="M 72 24 L 270 139"/>
    <path fill="none" stroke="#00ff00" d="M 270 139 L 271 138"/>
    <path fill="none" stroke="#ff0000" d="M 271 138 L 71 254"/>
    <path fill="none" stroke="#ff0000" d="M 71 254 L 72 255"/>
    <path fill="none" stroke="#ff00ff" d="M 72 255 L 72 22"/>
    <path fill="none" stroke="#ff00ff" d="M 72 22 L 71 22"/>
    <path fill="none" stroke="#ffff00" d="M 71 22 L 275 140"/>
    <path fill="none" stroke="#ffff00" d="M 275 140 L 276 139"/>
    <path fill="none" stroke="#ffffff" d="M 276 139 L 71 258"/>
    <path fill="none" stroke="#ffffff" d="M 71 258 L 72 259"/>
    <path fill="none" stroke="#a52a2a" d="M 72 259 L 72 20"/>
    <path fill="none" stroke="#a52a2a" d="M 72 20 L 71 20"/>
    <path fill="none" stroke="#d2b48c" d="M 71 20 L 280 141"/>
    <path fill="none" stroke="#d2b48c" d="M 280 141 L 281 140"/>
    <path fill="none" stroke="#228b22" d="M 281 140 L 71 262"/>
    <path fill="none" stroke="#228b22" d="M 71 262 L 72 263"/>
    <path fill="none" stroke="#7fffd4" d="M 72 263 L 72 18"/>
    <path fill="none" stroke="#7fffd4" d="M 72 18 L 71 18"/>
    <path fill="none" stroke="#fa8072" d="M 71 18 L 285 142"/>
    <path fill="none" stroke="#fa8072" d="M 285 142 L 286 141"/>
    <path fill="none" stroke="#800080" d="M 286 141 L 70 266"/>
    <path fill="none" stroke="#800080" d="M 70 266 L 71 267"/>
    <path fill="none" stroke="#ffa500" d="M 71 267 L 71 16"/>
    <path fill="none" stroke="#ffa500" d="M 71 16 L 70 16"/>
    <path fill="none" stroke="#808080" d="M 70 16 L 289 143"/>
    <path fill="none" stroke="#808080" d="M 289 143 L 290 142"/>
    <path fill="none" stroke="#00ffff" d="M 290 142 L 69 270"/>
    <path fill="none" stroke="#00ffff" d="M 69 270 L 70 271"/>
    <path fill="none" stroke="#00ff00" d="M 70 271 L 70 14"/>
    <path fill="none" stroke="#00ff00" d="M 70 14 L 69 14"/>
    <path fill="none" stroke="#ff0000" d="M 69 14 L 293 144"/>
    <path fill="none" stroke="#ff0000" d="M 293 144 L 294 143"/>
    <path fill="none" stroke="#ff00ff" d="M 294 143 L 68 274"/>
    <path fill="none" stroke="#ff00ff" d="M 68 274 L 69 275"/>
    <path fill="none" stroke="#ffff00" d="M 69 275 L 69 12"/>
    <path fill="none" stroke="#ffff00" d="M 69 12 L 68 12"/>
    <path fill="none" stroke="#ffffff" d="M 68 12 L 297 145"/>
    <path fill="none" stroke="#ffffff" d="M 297 145 L 298 144"/>
    <path fill="none" stroke="#a52a2a" d="M 298 144 L 67 278"/>
    <path fill="none" stroke="#a52a2a" d="M 67 278 L 68 279"/>
    <path fill="none" stroke="#d2b48c" d="M 68 279 L 68 10"/>
    <path fill="none" stroke="#d2b48c" d="M 68 10 L 67 10"/>
    <path fill="none" stroke="#228b22" d="M 67 10 L 302 146"/>
    <path fill="none" stroke="#228b22" d="M 302 146 L 303 145"/>
    <path fill="none" stroke="#7fffd4" d="M 303 145 L 67 282"/>
    <path fill="none" stroke="#7fffd4" d="M 67 282 L 68 283"/>
    <path fill="none" stroke="#fa8072" d="M 68 283 L 68 8"/>
    <path fill="none" stroke="#fa8072" d="M 68 8 L 67 8"/>
    <path fill="none" stroke="#800080" d="M 67 8 L 307 147"/>
    <path fill="none" stroke="#800080" d="M 307 147 L 308 146"/>
    <path fill="none" stroke="#ffa500" d="M 308 146 L 66 286"/>
    <path fill="none" stroke="#ffa500" d="M 66 286 L 67 287"/>
    <path fill="none" stroke="#808080" d="M 67 287 L 67 6"/>
    <path fill="none" stroke="#808080" d="M 67 6 L 66 6"/>
    <path fill="none" stroke="#00ffff" d="M 66 6 L 311 148"/>
    <path fill="none" stroke="#00ffff" d="M 311 148 L 312 147"/>
    <path fill="none" stroke="#00ff00" d="M 312 147 L 65 290"/>
    <path fill="none" stroke="#00ff00" d="M 65 290 L 66 291"/>
    <path fill="none" stroke="#ff0000" d="M 66 291 L 66 4"/>
    <path fill="none" stroke="#ff0000" d="M 66 4 L 65 4"/>
    <path fill="none" stroke="#ff00ff" d="M 65 4 L 315 149"/>
    <path fill="none" stroke="#ff00ff" d="M 315 149 L 316 148"/>
    <path fill="none" stroke="#ffff00" d="M 316 148 L 64 294"/>
    <path fill="none" stroke="#ffff00" d="M 64 294 L 65 295"/>
    <path fill="none" stroke="#ffffff" d="M 65 295 L 65 2"/>
    <path fill="none" stroke="#ffffff" d="M 65 2 L 64 2"/>
    <path fill="none" stroke="#a52a2a" d="M 64 2 L 319 150"/>
    <path fill="none" stroke="#a52a2a" d="M 319 150 L 320 149"/>
    <path fill="none" stroke="#d2b48c" d="M 320 149 L 63 298"/>
    <path fill="none" stroke="#d2b48c" d="M 63 298 L 64 299"/>
    <path fill="none" stroke="#228b22" d="M 64 299 L 64 0"/>
    <path fill="none" stroke="#228b22" d="M 64 0 L 63 0"/>
</svg>
