<svg width="200" height="200" viewBox="0 0 200 200" xmlns="http://www.w3.org/2000/svg">
    <defs/>
    <path fill="#000000" stroke="none" d="M 0 0 L 200 0 L 200 200 L 0 200 Z"/>
    <path fill="none" stroke="#d2b48c" d="M 100 100 L 101 98"/>
    <path fill="none" stroke="#d2b48c" d="M 101 98 L 99 97"/>
    <path fill="none" stroke="#d2b48c" d="M 99 97 L 98 99"/>
    <path fill="none" stroke="#d2b48c" d="M 98 99 L 100 100"/>
    <path fill="none" stroke="#ff0000" d="M 100 100 L 103 97"/>
    <path fill="none" stroke="#ff0000" d="M 103 97 L 100 94"/>
    <path fill="none" stroke="#ff0000" d="M 100 94 L 97 97"/>
    <path fill="none" stroke="#ff0000" d="M 97 97 L 100 100"/>
    <path fill="none" stroke="#ffff00" d="M 100 100 L 105 97"/>
    <path fill="none" stroke="#ffff00" d="M 105 97 L 102 92"/>
    <path fill="none" stroke="#ffff00" d="M 102 92 L 97 95"/>
    <path fill="none" stroke="#ffff00" d="M 97 95 L 100 100"/>
    <path fill="none" stroke="#a52a2a" d="M 100 100 L 108 99"/>
    <path fill="none" stroke="#a52a2a" d="M 108 99 L 107 91"/>
    <path fill="none" stroke="#a52a2a" d="M 107 91 L 99 92"/>
    <path fill="none" stroke="#a52a2a" d="M 99 92 L 100 100"/>
    <path fill="none" stroke="#228b22" d="M 100 100 L 110 102"/>
    <path fill="none" stroke="#228b22" d="M 110 102 L 112 92"/>
    <path fill="none" stroke="#228b22" d="M 112 92 L 102 90"/>
    <path fill="none" stroke="#228b22" d="M 102 90 L 100 100"/>
    <path fill="none" stroke="#ff0000" d="M 100 100 L 110 106"/>
    <path fill="none" stroke="#ff0000" d="M 110 106 L 116 96"/>
    <path fill="none" stroke="#ff0000" d="M 116 96 L 106 90"/>
    <path fill="none" stroke="#ff0000" d="M 106 90 L 100 100"/>
    <path fill="none" stroke="#ffff00" d="M 100 100 L 109 111"/>
    <path fill="none" stroke="#ffff00" d="M 109 111 L 120 102"/>
    <path fill="none" stroke="#ffff00" d="M 120 102 L 111 91"/>
    <path fill="none" stroke="#ffff00" d="M 111 91 L 100 100"/>
    <path fill="none" stroke="#a52a2a" d="M 100 100 L 105 115"/>
    <path fill="none" stroke="#a52a2a" d="M 105 115 L 120 110"/>
    <path fill="none" stroke="#a52a2a" d="M 120 110 L 115 95"/>
    <path fill="none" stroke="#a52a2a" d="M 115 95 L 100 100"/>
    <path fill="none" stroke="#228b22" d="M 100 100 L 100 118"/>
    <path fill="none" stroke="#228b22" d="M 100 118 L 118 118"/>
    <path fill="none" stroke="#228b22" d="M 118 118 L 118 100"/>
    <path fill="none" stroke="#228b22" d="M 118 100 L 100 100"/>
    <path fill="none" stroke="#ff0000" d="M 100 100 L 93 119"/>
    <path fill="none" stroke="#ff0000" d="M 93 119 L 112 126"/>
    <path fill="none" stroke="#ff0000" d="M 112 126 L 119 107"/>
    <path fill="none" stroke="#ff0000" d="M 119 107 L 100 100"/>
    <path fill="none" stroke="#ffff00" d="M 100 100 L 86 117"/>
    <path fill="none" stroke="#ffff00" d="M 86 117 L 103 131"/>
    <path fill="none" stroke="#ffff00" d="M 103 131 L 117 114"/>
    <path fill="none" stroke="#ffff00" d="M 117 114 L 100 100"/>
    <path fill="none" stroke="#a52a2a" d="M 100 100 L 79 112"/>
    <path fill="none" stroke="#a52a2a" d="M 79 112 L 91 133"/>
    <path fill="none" stroke="#a52a2a" d="M 91 133 L 112 121"/>
    <path fill="none" stroke="#a52a2a" d="M 112 121 L 100 100"/>
    <path fill="none" stroke="#228b22" d="M 100 100 L 74 105"/>
    <path fill="none" stroke="#228b22" d="M 74 105 L 79 131"/>
    <path fill="none" stroke="#228b22" d="M 79 131 L 105 126"/>
    <path fill="none" stroke="#228b22" d="M 105 126 L 100 100"/>
    <path fill="none" stroke="#ff0000" d="M 100 100 L 72 95"/>
    <path fill="none" stroke="#ff0000" d="M 72 95 L 67 123"/>
    <path fill="none" stroke="#ff0000" d="M 67 123 L 95 128"/>
    <path fill="none" stroke="#ff0000" d="M 95 128 L 100 100"/>
    <path fill="none" stroke="#ffff00" d="M 100 100 L 74 85"/>
    <path fill="none" stroke="#ffff00" d="M 74 85 L 59 111"/>
    <path fill="none" stroke="#ffff00" d="M 59 111 L 85 126"/>
    <path fill="none" stroke="#ffff00" d="M 85 126 L 100 100"/>
    <path fill="none" stroke="#a52a2a" d="M 100 100 L 79 75"/>
    <path fill="none" stroke="#a52a2a" d="M 79 75 L 54 96"/>
    <path fill="none" stroke="#a52a2a" d="M 54 96 L 75 121"/>
    <path fill="none" stroke="#a52a2a" d="M 75 121 L 100 100"/>
    <path fill="none" stroke="#228b22" d="M 100 100 L 88 68"/>
    <path fill="none" stroke="#228b22" d="M 88 68 L 56 80"/>
    <path fill="none" stroke="#228b22" d="M 56 80 L 68 112"/>
    <path fill="none" stroke="#228b22" d="M 68 112 L 100 100"/>
    <path fill="none" stroke="#ff0000" d="M 100 100 L 100 64"/>
    <path fill="none" stroke="#ff0000" d="M 100 64 L 64 64"/>
    <path fill="none" stroke="#ff0000" d="M 64 64 L 64 100"/>
    <path fill="none" stroke="#ff0000" d="M 64 100 L 100 100"/>
    <path fill="none" stroke="#ffff00" d="M 100 100 L 113 64"/>
    <path fill="none" stroke="#ffff00" d="M 113 64 L 77 51"/>
    <path fill="none" stroke="#ffff00" d="M 77 51 L 64 87"/>
    <path fill="none" stroke="#ffff00" d="M 64 87 L 100 100"/>
    <path fill="none" stroke="#a52a2a" d="M 100 100 L 126 69"/>
    <path fill="none" stroke="#a52a2a" d="M 126 69 L 95 43"/>
    <path fill="none" stroke="#a52a2a" d="M 95 43 L 69 74"/>
    <path fill="none" stroke="#a52a2a" d="M 69 74 L 100 100"/>
    <path fill="none" stroke="#228b22" d="M 100 100 L 136 79"/>
    <path fill="none" stroke="#228b22" d="M 136 79 L 115 43"/>
    <path fill="none" stroke="#228b22" d="M 115 43 L 79 64"/>
    <path fill="none" stroke="#228b22" d="M 79 64 L 100 100"/>
    <path fill="none" stroke="#ff0000" d="M 100 100 L 143 92"/>
    <path fill="none" stroke="#ff0000" d="M 143 92 L 135 49"/>
    <path fill="none" stroke="#ff0000" d="M 135 49 L 92 57"/>
    <path fill="none" stroke="#ff0000" d="M 92 57 L 100 100"/>
    <path fill="none" stroke="#ffff00" d="M 100 100 L 145 108"/>
    <path fill="none" stroke="#ffff00" d="M 145 108 L 153 63"/>
    <path fill="none" stroke="#ffff00" d="M 153 63 L 108 55"/>
    <path fill="none" stroke="#ffff00" d="M 108 55 L 100 100"/>
    <path fill="none" stroke="#a52a2a" d="M 100 100 L 142 124"/>
    <path fill="none" stroke="#a52a2a" d="M 142 124 L 166 82"/>
    <path fill="none" stroke="#a52a2a" d="M 166 82 L 124 58"/>
    <path fill="none" stroke="#a52a2a" d="M 124 58 L 100 100"/>
    <path fill="none" stroke="#228b22" d="M 100 100 L 132 138"/>
    <path fill="none" stroke="#228b22" d="M 132 138 L 170 106"/>
    <path fill="none" stroke="#228b22" d="M 170 106 L 138 68"/>
    <path fill="none" stroke="#228b22" d="M 138 68 L 100 100"/>
    <path fill="none" stroke="#ff0000" d="M 100 100 L 118 149"/>
    <path fill="none" stroke="#ff0000" d="M 118 149 L 167 131"/>
    <path fill="none" stroke="#ff0000" d="M 167 131 L 149 82"/>
    <path fill="none" stroke="#ff0000" d="M 149 82 L 100 100"/>
    <path fill="none" stroke="#ffff00" d="M 100 100 L 100 154"/>
    <path fill="none" stroke="#ffff00" d="M 100 154 L 154 154"/>
    <path fill="none" stroke="#ffff00" d="M 154 154 L 154 100"/>
    <path fill="none" stroke="#ffff00" d="M 154 100 L 100 100"/>
    <path fill="none" stroke="#a52a2a" d="M 100 100 L 81 153"/>
    <path fill="none" stroke="#a52a2a" d="M 81 153 L 134 172"/>
    <path fill="none" stroke="#a52a2a" d="M 134 172 L 153 119"/>
    <path fill="none" stroke="#a52a2a" d="M 153 119 L 100 100"/>
    <path fill="none" stroke="#228b22" d="M 100 100 L 63 144"/>
    <path fill="none" stroke="#228b22" d="M 63 144 L 107 181"/>
    <path fill="none" stroke="#228b22" d="M 107 181 L 144 137"/>
    <path fill="none" stroke="#228b22" d="M 144 137 L 100 100"/>
</svg>
