<svg width="200" height="200" viewBox="0 0 200 200" xmlns="http://www.w3.org/2000/svg">
    <defs/>
    <path fill="#000000" stroke="none" d="M 0 0 L 200 0 L 200 200 L 0 200 Z"/>
    <path fill="none" stroke="#d2b48c" d="M 100 100 L 101 98"/>
    <path fill="none" stroke="#d2b48c" d="M 101 98 L 52 80"/>
    <path fill="none" stroke="#d2b48c" d="M 52 80 L 51 82"/>
    <path fill="none" stroke="#d2b48c" d="M 51 82 L 100 100"/>
    <path fill="none" stroke="#ff0000" d="M 100 100 L 103 97"/>
    <path fill="none" stroke="#ff0000" d="M 103 97 L 62 62"/>
    <path fill="none" stroke="#ff0000" d="M 62 62 L 59 65"/>
    <path fill="none" stroke="#ff0000" d="M 59 65 L 100 100"/>
    <path fill="none" stroke="#ffff00" d="M 100 100 L 105 97"/>
    <path fill="none" stroke="#ffff00" d="M 105 97 L 77 49"/>
    <path fill="none" stroke="#ffff00" d="M 77 49 L 72 52"/>
    <path fill="none" stroke="#ffff00" d="M 72 52 L 100 100"/>
    <path fill="none" stroke="#a52a2a" d="M 100 100 L 108 99"/>
    <path fill="none" stroke="#a52a2a" d="M 108 99 L 98 42"/>
    <path fill="none" stroke="#a52a2a" d="M 98 42 L 90 43"/>
    <path fill="none" stroke="#a52a2a" d="M 90 43 L 100 100"/>
    <path fill="none" stroke="#228b22" d="M 100 100 L 110 102"/>
    <path fill="none" stroke="#228b22" d="M 110 102 L 120 43"/>
    <path fill="none" stroke="#228b22" d="M 120 43 L 110 41"/>
    <path fill="none" stroke="#228b22" d="M 110 41 L 100 100"/>
    <path fill="none" stroke="#ff0000" d="M 100 100 L 110 106"/>
    <path fill="none" stroke="#ff0000" d="M 110 106 L 141 52"/>
    <path fill="none" stroke="#ff0000" d="M 141 52 L 131 46"/>
    <path fill="none" stroke="#ff0000" d="M 131 46 L 100 100"/>
    <path fill="none" stroke="#ffff00" d="M 100 100 L 109 111"/>
    <path fill="none" stroke="#ffff00" d="M 109 111 L 158 70"/>
    <path fill="none" stroke="#ffff00" d="M 158 70 L 149 59"/>
    <path fill="none" stroke="#ffff00" d="M 149 59 L 100 100"/>
    <path fill="none" stroke="#a52a2a" d="M 100 100 L 105 115"/>
    <path fill="none" stroke="#a52a2a" d="M 105 115 L 167 92"/>
    <path fill="none" stroke="#a52a2a" d="M 167 92 L 162 77"/>
    <path fill="none" stroke="#a52a2a" d="M 162 77 L 100 100"/>
    <path fill="none" stroke="#228b22" d="M 100 100 L 100 118"/>
    <path fill="none" stroke="#228b22" d="M 100 118 L 168 118"/>
    <path fill="none" stroke="#228b22" d="M 168 118 L 168 100"/>
    <path fill="none" stroke="#228b22" d="M 168 100 L 100 100"/>
    <path fill="none" stroke="#ff0000" d="M 100 100 L 93 119"/>
    <path fill="none" stroke="#ff0000" d="M 93 119 L 159 143"/>
    <path fill="none" stroke="#ff0000" d="M 159 143 L 166 124"/>
    <path fill="none" stroke="#ff0000" d="M 166 124 L 100 100"/>
    <path fill="none" stroke="#ffff00" d="M 100 100 L 86 117"/>
    <path fill="none" stroke="#ffff00" d="M 86 117 L 141 163"/>
    <path fill="none" stroke="#ffff00" d="M 141 163 L 155 146"/>
    <path fill="none" stroke="#ffff00" d="M 155 146 L 100 100"/>
    <path fill="none" stroke="#a52a2a" d="M 100 100 L 79 112"/>
    <path fill="none" stroke="#a52a2a" d="M 79 112 L 116 176"/>
    <path fill="none" stroke="#a52a2a" d="M 116 176 L 137 164"/>
    <path fill="none" stroke="#a52a2a" d="M 137 164 L 100 100"/>
    <path fill="none" stroke="#228b22" d="M 100 100 L 74 105"/>
    <path fill="none" stroke="#228b22" d="M 74 105 L 87 180"/>
    <path fill="none" stroke="#228b22" d="M 87 180 L 113 175"/>
    <path fill="none" stroke="#228b22" d="M 113 175 L 100 100"/>
    <path fill="none" stroke="#ff0000" d="M 100 100 L 72 95"/>
    <path fill="none" stroke="#ff0000" d="M 72 95 L 58 172"/>
    <path fill="none" stroke="#ff0000" d="M 58 172 L 86 177"/>
    <path fill="none" stroke="#ff0000" d="M 86 177 L 100 100"/>
    <path fill="none" stroke="#ffff00" d="M 100 100 L 74 85"/>
    <path fill="none" stroke="#ffff00" d="M 74 85 L 34 154"/>
    <path fill="none" stroke="#ffff00" d="M 34 154 L 60 169"/>
    <path fill="none" stroke="#ffff00" d="M 60 169 L 100 100"/>
    <path fill="none" stroke="#a52a2a" d="M 100 100 L 79 75"/>
    <path fill="none" stroke="#a52a2a" d="M 79 75 L 16 128"/>
    <path fill="none" stroke="#a52a2a" d="M 16 128 L 37 153"/>
    <path fill="none" stroke="#a52a2a" d="M 37 153 L 100 100"/>
    <path fill="none" stroke="#228b22" d="M 100 100 L 88 68"/>
    <path fill="none" stroke="#228b22" d="M 88 68 L 9 97"/>
    <path fill="none" stroke="#228b22" d="M 9 97 L 21 129"/>
    <path fill="none" stroke="#228b22" d="M 21 129 L 100 100"/>
    <path fill="none" stroke="#ff0000" d="M 100 100 L 100 64"/>
    <path fill="none" stroke="#ff0000" d="M 100 64 L 14 64"/>
    <path fill="none" stroke="#ff0000" d="M 14 64 L 14 100"/>
    <path fill="none" stroke="#ff0000" d="M 14 100 L 100 100"/>
    <path fill="none" stroke="#ffff00" d="M 100 100 L 113 64"/>
    <path fill="none" stroke="#ffff00" d="M 113 64 L 30 34"/>
    <path fill="none" stroke="#ffff00" d="M 30 34 L 17 70"/>
    <path fill="none" stroke="#ffff00" d="M 17 70 L 100 100"/>
    <path fill="none" stroke="#a52a2a" d="M 100 100 L 126 69"/>
    <path fill="none" stroke="#a52a2a" d="M 126 69 L 57 11"/>
    <path fill="none" stroke="#a52a2a" d="M 57 11 L 31 42"/>
    <path fill="none" stroke="#a52a2a" d="M 31 42 L 100 100"/>
    <path fill="none" stroke="#228b22" d="M 100 100 L 136 79"/>
    <path fill="none" stroke="#228b22" d="M 136 79 L 90 -1"/>
    <path fill="none" stroke="#228b22" d="M 90 -1 L 54 20"/>
    <path fill="none" stroke="#228b22" d="M 54 20 L 100 100"/>
    <path fill="none" stroke="#ff0000" d="M 100 100 L 143 92"/>
    <path fill="none" stroke="#ff0000" d="M 143 92 L 127 -1"/>
    <path fill="none" stroke="#ff0000" d="M 127 -1 L 84 7"/>
    <path fill="none" stroke="#ff0000" d="M 84 7 L 100 100"/>
    <path fill="none" stroke="#ffff00" d="M 100 100 L 145 108"/>
    <path fill="none" stroke="#ffff00" d="M 145 108 L 162 13"/>
    <path fill="none" stroke="#ffff00" d="M 162 13 L 117 5"/>
    <path fill="none" stroke="#ffff00" d="M 117 5 L 100 100"/>
    <path fill="none" stroke="#a52a2a" d="M 100 100 L 142 124"/>
    <path fill="none" stroke="#a52a2a" d="M 142 124 L 191 39"/>
    <path fill="none" stroke="#a52a2a" d="M 191 39 L 149 15"/>
    <path fill="none" stroke="#a52a2a" d="M 149 15 L 100 100"/>
    <path fill="none" stroke="#228b22" d="M 100 100 L 132 138"/>
    <path fill="none" stroke="#228b22" d="M 132 138 L 209 74"/>
    <path fill="none" stroke="#228b22" d="M 209 74 L 177 36"/>
    <path fill="none" stroke="#228b22" d="M 177 36 L 100 100"/>
    <path fill="none" stroke="#ff0000" d="M 100 100 L 118 149"/>
    <path fill="none" stroke="#ff0000" d="M 118 149 L 214 114"/>
    <path fill="none" stroke="#ff0000" d="M 214 114 L 196 65"/>
    <path fill="none" stroke="#ff0000" d="M 196 65 L 100 100"/>
    <path fill="none" stroke="#ffff00" d="M 100 100 L 100 154"/>
    <path fill="none" stroke="#ffff00" d="M 100 154 L 204 154"/>
    <path fill="none" stroke="#ffff00" d="M 204 154 L 204 100"/>
    <path fill="none" stroke="#ffff00" d="M 204 100 L 100 100"/>
    <path fill="none" stroke="#a52a2a" d="M 100 100 L 81 153"/>
    <path fill="none" stroke="#a52a2a" d="M 81 153 L 181 189"/>
    <path fill="none" stroke="#a52a2a" d="M 181 189 L 200 136"/>
    <path fill="none" stroke="#a52a2a" d="M 200 136 L 100 100"/>
    <path fill="none" stroke="#228b22" d="M 100 100 L 63 144"/>
    <path fill="none" stroke="#228b22" d="M 63 144 L 146 213"/>
    <path fill="none" stroke="#228b22" d="M 146 213 L 183 169"/>
    <path fill="none" stroke="#228b22" d="M 183 169 L 100 100"/>
</svg>
